<svg width="262" height="40" viewBox="0 0 262 40" fill="none" xmlns="http://www.w3.org/2000/svg">
<g clip-path="url(#clip0_1654_136)">
<path d="M101.77 5.07996H107.06V34.93H101.77V39.54H112.32V0.459961H101.77V5.07996ZM128.33 5.07996V0.459961H117.78V39.54H128.33V34.93H123.04V5.07996H128.33Z" fill="#D6E03D"/>
<path d="M5.4 33.1999H0V6.91992H12.73C13.6811 6.93241 14.6237 7.10133 15.52 7.41992C16.5354 7.76674 17.4706 8.31427 18.27 9.02992C19.171 9.83665 19.8961 10.8205 20.4 11.9199C21.0117 13.2937 21.3089 14.7867 21.27 16.2899C21.27 19.6233 20.3033 22.2333 18.37 24.1199C17.8066 24.696 17.1552 25.1787 16.44 25.5499C15.8367 25.8548 15.2075 26.1058 14.56 26.2999C14.0716 26.4493 13.5688 26.5465 13.06 26.5899H12.22H5.4V33.1999ZM5.4 21.1999H12.27C12.6073 21.1883 12.9425 21.1414 13.27 21.0599C13.7099 20.9432 14.1126 20.716 14.44 20.3999C14.8753 19.9799 15.2162 19.472 15.44 18.9099C15.7509 18.066 15.8903 17.1684 15.85 16.2699C15.876 15.5887 15.7672 14.909 15.53 14.2699C15.361 13.8157 15.0869 13.4079 14.73 13.0799C14.4366 12.8272 14.097 12.6336 13.73 12.5099C13.405 12.4134 13.0689 12.3596 12.73 12.3499H5.43L5.4 21.1999Z" fill="#231F20"/>
<path d="M36.27 33.1599C34.5191 33.1838 32.7823 32.8432 31.17 32.1599C29.6174 31.4925 28.2083 30.5316 27.02 29.3299C25.8506 28.1166 24.9179 26.6956 24.27 25.1399C23.5837 23.529 23.23 21.796 23.23 20.0449C23.23 18.2939 23.5837 16.5609 24.27 14.9499C24.9336 13.3967 25.8835 11.9821 27.07 10.7799C28.2613 9.58441 29.6698 8.62727 31.22 7.95995C32.831 7.27367 34.564 6.91992 36.315 6.91992C38.0661 6.91992 39.799 7.27367 41.41 7.95995C42.9615 8.62488 44.3705 9.5823 45.56 10.7799C46.7496 11.9817 47.7028 13.3962 48.37 14.9499C49.0496 16.5626 49.3997 18.2949 49.3997 20.0449C49.3997 21.795 49.0496 23.5273 48.37 25.1399C47.7002 26.6893 46.7472 28.1001 45.56 29.2999C44.3738 30.5041 42.9642 31.4654 41.41 32.1299C39.7879 32.8301 38.0366 33.1811 36.27 33.1599ZM36.27 12.3199C35.2383 12.3108 34.2162 12.5186 33.27 12.9299C32.3597 13.3199 31.5343 13.8838 30.84 14.5899C30.1699 15.3026 29.6375 16.1333 29.27 17.0399C28.8673 17.9889 28.6598 19.0091 28.6598 20.0399C28.6598 21.0708 28.8673 22.091 29.27 23.0399C29.6585 23.9521 30.2148 24.7831 30.91 25.4899C31.5831 26.1919 32.3841 26.7588 33.27 27.1599C34.2206 27.5528 35.2416 27.7468 36.27 27.7299C37.3017 27.7391 38.3238 27.5313 39.27 27.1199C41.1124 26.3133 42.5834 24.8423 43.39 22.9999C43.7861 22.0494 43.99 21.0297 43.99 19.9999C43.99 18.9701 43.7861 17.9505 43.39 16.9999C42.5814 15.1707 41.109 13.7162 39.27 12.9299C38.3253 12.5139 37.3022 12.3059 36.27 12.3199Z" fill="#231F20"/>
<path d="M69.91 6.94992H75.49V33.1999H69.34L58.04 16.1999V33.1999H52.46V6.91992H58.61L69.91 23.9199V6.94992Z" fill="#231F20"/>
<path d="M89.27 33.45C87.9886 33.4614 86.7154 33.2447 85.51 32.81C84.394 32.4071 83.3505 31.8262 82.42 31.09C81.5392 30.4052 80.8075 29.5477 80.27 28.57C79.7643 27.6293 79.4998 26.5779 79.5 25.51H84.94C84.9605 25.7849 85.0652 26.0468 85.24 26.26C85.4784 26.5826 85.7691 26.8632 86.1 27.09C86.5139 27.371 86.9649 27.5931 87.44 27.75C88.0177 27.9379 88.6225 28.0291 89.23 28.02C90.0929 28.051 90.954 27.9222 91.77 27.64C92.2808 27.4566 92.7524 27.1784 93.16 26.82C93.4912 26.4823 93.738 26.0711 93.88 25.62C93.8799 25.3323 93.8599 25.0449 93.82 24.76C93.7874 24.4706 93.6729 24.1965 93.49 23.97C93.0228 23.4927 92.424 23.1654 91.77 23.03C90.7899 22.7816 89.7808 22.6673 88.77 22.69C87.9467 22.6948 87.1253 22.611 86.32 22.44C85.6645 22.292 85.0249 22.081 84.41 21.81C83.9037 21.5838 83.4241 21.3021 82.98 20.97C82.615 20.6958 82.2799 20.3841 81.98 20.04C81.4773 19.5073 81.0651 18.8959 80.76 18.23C80.4991 17.6589 80.2981 17.0624 80.16 16.45C80.0486 15.9671 79.9816 15.4751 79.96 14.98C79.96 14.57 79.96 14.26 79.96 14.07C79.96 13.88 79.96 13.64 80.03 13.26C80.0679 12.8429 80.1483 12.4307 80.27 12.03C80.4456 11.5309 80.6596 11.0461 80.91 10.58C81.2109 10.0331 81.5918 9.53432 82.04 9.09998C83.0109 8.19685 84.1548 7.49994 85.4027 7.05134C86.6505 6.60274 87.9763 6.41177 89.3 6.48998C90.6127 6.41409 91.9268 6.61328 93.1581 7.07479C94.3893 7.53629 95.5106 8.24993 96.45 9.16998C97.0082 9.73938 97.4769 10.3901 97.84 11.1C98.1454 11.6927 98.3867 12.3162 98.56 12.96C98.6838 13.4422 98.7675 13.9339 98.81 14.43C98.81 14.83 98.81 15.08 98.81 15.18L93.38 15V15.07C93.3738 14.7322 93.3268 14.3964 93.24 14.07C93.1268 13.6962 92.9282 13.3539 92.66 13.07C92.314 12.7063 91.8851 12.4319 91.41 12.27C90.7235 12.0273 89.9977 11.9154 89.27 11.94C88.5748 11.9217 87.8807 12.0059 87.21 12.19C86.7805 12.314 86.3795 12.5213 86.03 12.8C85.7861 12.9994 85.5969 13.2574 85.48 13.55C85.3923 13.7562 85.3415 13.9762 85.33 14.2V14.45C85.3285 14.6917 85.3519 14.933 85.4 15.17C85.4 15.36 85.51 15.57 85.58 15.79C85.6557 16.0291 85.7897 16.2456 85.97 16.42C86.7443 17.0422 87.7314 17.3366 88.72 17.24C92.1067 17.24 94.72 17.9733 96.56 19.44C97.4734 20.1868 98.1983 21.138 98.676 22.2168C99.1537 23.2956 99.3709 24.4717 99.31 25.65C99.2859 26.5116 99.0957 27.3604 98.75 28.15C98.358 29.118 97.7728 29.9959 97.03 30.73C96.1281 31.5957 95.0645 32.2753 93.9 32.73C92.4174 33.2659 90.8453 33.5104 89.27 33.45Z" fill="#231F20"/>
<path d="M137.2 33.1999H131.8V6.91992H144.53C145.481 6.93241 146.424 7.10133 147.32 7.41992C148.342 7.76431 149.284 8.31196 150.09 9.02992C151.005 9.83566 151.746 10.8189 152.27 11.9199C152.878 13.2944 153.172 14.7874 153.13 16.2899C153.13 19.6233 152.163 22.2333 150.23 24.1199C149.657 24.6986 148.996 25.1814 148.27 25.5499C147.666 25.8548 147.037 26.1058 146.39 26.2999C145.901 26.4484 145.399 26.5456 144.89 26.5899H144.05H137.22L137.2 33.1999ZM137.2 21.1999H144.1C144.437 21.1877 144.772 21.1408 145.1 21.0599C145.537 20.9429 145.936 20.7156 146.26 20.3999C146.695 19.9795 147.036 19.4717 147.26 18.9099C147.565 18.0644 147.704 17.1681 147.67 16.2699C147.691 15.589 147.582 14.9103 147.35 14.2699C147.178 13.8148 146.9 13.407 146.54 13.0799C146.249 12.8237 145.909 12.6297 145.54 12.5099C145.215 12.4134 144.879 12.3596 144.54 12.3499H137.25L137.2 21.1999Z" fill="#231F20"/>
<path d="M168.09 33.16C166.342 33.1836 164.609 32.843 163 32.16C161.446 31.4954 160.036 30.5341 158.85 29.33C157.663 28.1301 156.71 26.7193 156.04 25.17C155.36 23.5573 155.01 21.825 155.01 20.075C155.01 18.325 155.36 16.5926 156.04 14.98C156.707 13.4263 157.66 12.0117 158.85 10.81C160.039 9.61234 161.448 8.65491 163 7.98997C164.611 7.3037 166.344 6.94995 168.095 6.94995C169.846 6.94995 171.579 7.3037 173.19 7.98997C174.74 8.6573 176.149 9.61444 177.34 10.81C178.526 12.0121 179.476 13.4267 180.14 14.98C180.826 16.5909 181.18 18.3239 181.18 20.075C181.18 21.826 180.826 23.559 180.14 25.17C179.474 26.7189 178.524 28.1297 177.34 29.33C176.152 30.5316 174.743 31.4925 173.19 32.16C171.577 32.8421 169.841 33.1826 168.09 33.16ZM168.09 12.32C167.058 12.3105 166.036 12.5183 165.09 12.93C164.18 13.3199 163.354 13.8838 162.66 14.59C161.965 15.299 161.406 16.1294 161.01 17.04C160.607 17.9889 160.4 19.0092 160.4 20.04C160.4 21.0708 160.607 22.0911 161.01 23.04C161.406 23.9505 161.965 24.7809 162.66 25.49C163.354 26.1993 164.179 26.7666 165.09 27.16C166.038 27.5666 167.059 27.7763 168.09 27.7763C169.121 27.7763 170.142 27.5666 171.09 27.16C172.934 26.3597 174.404 24.8863 175.2 23.04C175.603 22.0911 175.81 21.0708 175.81 20.04C175.81 19.0092 175.603 17.9889 175.2 17.04C174.407 15.194 172.936 13.7228 171.09 12.93C170.145 12.5163 169.122 12.3084 168.09 12.32Z" fill="#231F20"/>
<path d="M201.71 6.94992H207.27V33.1999H201.12L189.81 16.1999V33.1999H184.27V6.91992H190.42L201.72 23.9199L201.71 6.94992Z" fill="#231F20"/>
<path d="M229.13 12.3899H223.05V33.2H217.58V12.3899H211.5V6.94995H229.13V12.3899Z" fill="#231F20"/>
<path d="M238.71 6.98999V33.2H233.27V6.98999H238.71Z" fill="#231F20"/>
<path d="M251.75 33.45C250.472 33.4606 249.202 33.2439 248 32.81C246.88 32.408 245.833 31.8272 244.9 31.09C244.033 30.4012 243.316 29.5439 242.79 28.57C242.287 27.6286 242.026 26.5771 242.03 25.51H247.46C247.48 25.7849 247.585 26.0468 247.76 26.26C248.001 26.5803 248.291 26.8604 248.62 27.09C249.036 27.3729 249.491 27.5951 249.97 27.75C250.544 27.9379 251.146 28.0291 251.75 28.02C252.613 28.051 253.474 27.9222 254.29 27.64C254.802 27.4591 255.274 27.1806 255.68 26.82C256.015 26.4858 256.263 26.0734 256.4 25.62C256.398 25.3326 256.381 25.0456 256.35 24.76C256.309 24.471 256.192 24.1981 256.01 23.97C255.537 23.4892 254.931 23.1617 254.27 23.03C253.29 22.7813 252.281 22.6669 251.27 22.69C250.446 22.6959 249.625 22.6121 248.82 22.44C248.161 22.2934 247.518 22.0824 246.9 21.81C246.397 21.5839 245.92 21.3021 245.48 20.97C245.113 20.6979 244.778 20.386 244.48 20.04C243.98 19.507 243.571 18.8955 243.27 18.23C243.002 17.6609 242.797 17.0639 242.66 16.45C242.548 15.9671 242.481 15.4751 242.46 14.98C242.46 14.57 242.46 14.26 242.46 14.07C242.471 13.7987 242.498 13.5283 242.54 13.26C242.592 12.8397 242.693 12.427 242.84 12.03C243.015 11.5309 243.229 11.0461 243.48 10.58C243.784 10.0353 244.165 9.53698 244.61 9.09998C245.581 8.19685 246.725 7.49994 247.972 7.05134C249.22 6.60274 250.546 6.41177 251.87 6.48998C253.183 6.41347 254.497 6.61237 255.728 7.07391C256.96 7.53545 258.081 8.24942 259.02 9.16998C259.581 9.73918 260.053 10.3898 260.42 11.1C260.722 11.6928 260.96 12.3164 261.13 12.96C261.258 13.4412 261.342 13.9333 261.38 14.43C261.38 14.83 261.38 15.08 261.38 15.18L255.94 15V15.07C255.934 14.7322 255.887 14.3964 255.8 14.07C255.687 13.6962 255.488 13.3539 255.22 13.07C254.876 12.7083 254.451 12.434 253.98 12.27C253.29 12.0275 252.561 11.9155 251.83 11.94C251.135 11.9217 250.44 12.0059 249.77 12.19C249.341 12.3161 248.941 12.5232 248.59 12.8C248.383 12.9716 248.214 13.185 248.095 13.4263C247.976 13.6675 247.91 13.9312 247.9 14.2V14.45C247.898 14.6917 247.922 14.933 247.97 15.17C248.02 15.36 248.08 15.57 248.15 15.79C248.225 16.0291 248.359 16.2456 248.54 16.42C249.317 17.0438 250.308 17.3382 251.3 17.24C254.68 17.24 257.29 17.9733 259.13 19.44C260.043 20.1868 260.768 21.138 261.246 22.2168C261.724 23.2956 261.941 24.4717 261.88 25.65C261.86 26.511 261.673 27.36 261.33 28.15C260.922 29.1194 260.324 29.9969 259.57 30.73C258.666 31.5934 257.603 32.2727 256.44 32.73C254.938 33.2714 253.345 33.5159 251.75 33.45Z" fill="#231F20"/>
</g>
<defs>
<clipPath id="clip0_1654_136">
<rect width="261.87" height="39.08" fill="white" transform="translate(0 0.459961)"/>
</clipPath>
</defs>
</svg>
