<?xml version="1.0" standalone="no"?>
<!DOCTYPE svg PUBLIC "-//W3C//DTD SVG 20010904//EN"
 "http://www.w3.org/TR/2001/REC-SVG-20010904/DTD/svg10.dtd">
<svg version="1.0" xmlns="http://www.w3.org/2000/svg"
 width="500.000000pt" height="500.000000pt" viewBox="0 0 500.000000 500.000000"
 preserveAspectRatio="xMidYMid meet">

<g transform="translate(0.000000,500.000000) scale(0.100000,-0.100000)"
fill="#000000" stroke="none">
<path d="M3141 2724 c-25 -32 -25 -33 -5 -62 30 -43 104 -20 104 33 0 55 -64
73 -99 29z m73 -19 c9 -23 -22 -47 -45 -35 -19 11 -25 31 -12 43 12 13 51 7
57 -8z"/>
<path d="M2980 2710 c-25 -25 -26 -52 -2 -73 38 -35 102 -9 102 40 0 25 -30
53 -58 53 -12 0 -31 -9 -42 -20z m70 -34 c0 -26 -20 -39 -45 -30 -15 6 -20 35
-8 47 3 4 17 7 30 7 18 0 23 -6 23 -24z"/>
<path d="M1473 2713 c-20 -8 -15 -49 8 -64 16 -11 28 -44 50 -139 51 -212 46
-200 79 -200 28 0 34 7 106 151 l75 151 63 -7 c61 -6 64 -5 84 22 12 15 22 22
22 16 0 -7 6 -13 13 -13 10 0 12 -28 9 -127 -2 -71 -5 -134 -8 -141 -2 -7 -14
-12 -26 -10 -22 3 -23 5 -20 110 4 97 2 107 -15 117 -11 5 -28 8 -39 6 -10 -2
-31 -6 -45 -9 -36 -8 -43 -32 -18 -57 19 -19 20 -28 14 -89 -6 -55 -10 -69
-26 -73 -21 -6 -26 -39 -6 -55 6 -5 79 -13 160 -17 146 -7 148 -7 154 14 l6
22 22 -21 c28 -26 98 -38 120 -20 22 19 18 49 -8 59 -13 5 -40 30 -61 56 l-38
46 22 24 c23 24 70 38 95 29 12 -5 15 -24 15 -89 0 -76 2 -84 26 -109 48 -47
150 -30 142 25 -2 20 -9 24 -35 24 l-33 0 0 72 c0 66 2 72 21 75 53 8 49 70
-5 76 -14 2 -24 7 -21 12 3 5 1 19 -5 30 -15 28 -51 23 -67 -9 -19 -40 -46
-48 -121 -39 -72 9 -95 -2 -85 -41 3 -10 -1 -22 -8 -26 -10 -7 -11 13 -6 91 3
55 2 106 -3 113 -10 17 -98 8 -118 -13 -12 -12 -17 -11 -33 5 -23 23 -47 24
-77 4 -16 -12 -41 -15 -94 -13 -64 3 -73 1 -76 -16 -2 -10 1 -29 8 -41 10 -19
7 -31 -18 -80 l-29 -58 -18 74 c-21 86 -38 125 -63 138 -24 12 -75 21 -89 14z
m81 -46 c16 -16 31 -57 50 -135 16 -62 30 -112 33 -112 6 0 106 211 102 214
-2 2 -13 8 -24 14 -17 10 -15 11 20 12 48 0 85 -9 85 -21 0 -5 -11 -9 -25 -9
-22 0 -33 -16 -97 -145 -40 -80 -78 -145 -85 -145 -13 0 -17 12 -59 189 -20
88 -32 120 -52 138 l-25 23 27 0 c15 0 37 -10 50 -23z m501 -102 c-8 -143 -5
-148 57 -88 34 33 36 37 20 49 -15 12 -10 13 35 14 28 0 55 -4 58 -10 3 -5 -3
-10 -15 -10 -11 0 -39 -17 -61 -37 l-40 -38 51 -62 c28 -35 57 -63 65 -63 8 0
15 -4 15 -10 0 -5 -16 -10 -35 -10 -28 0 -40 7 -66 40 -18 22 -38 40 -46 40
-7 0 -13 9 -13 20 0 11 -7 20 -15 20 -23 0 -21 -86 3 -99 13 -8 2 -10 -46 -11
-40 0 -61 4 -57 10 3 6 12 10 19 10 16 0 26 84 26 221 0 83 -3 100 -17 108
-15 8 -16 10 -3 15 15 5 48 13 64 15 5 0 5 -54 1 -124z m-137 89 c3 -23 -18
-37 -43 -28 -16 6 -20 35 -8 48 14 14 48 1 51 -20z m432 -84 c0 -27 3 -30 30
-30 17 0 30 -4 30 -10 0 -5 -14 -10 -30 -10 l-31 0 3 -97 3 -98 40 -6 40 -5
-28 -12 c-37 -16 -48 -15 -75 4 -20 14 -22 23 -22 111 0 86 -2 95 -20 100 -26
7 -26 20 1 28 11 4 25 18 31 31 15 33 28 30 28 -6z m-448 -55 c-1 -22 -5 -70
-8 -107 -6 -64 -5 -68 17 -76 33 -13 11 -19 -48 -14 -54 4 -69 16 -33 25 17 4
20 14 20 54 0 26 3 65 7 86 5 33 3 39 -16 44 -29 8 -26 21 7 26 52 8 57 5 54
-38z m183 -155 c3 -5 1 -10 -4 -10 -6 0 -11 5 -11 10 0 6 2 10 4 10 3 0 8 -4
11 -10z"/>
<path d="M3345 2645 c-22 -8 -45 -22 -52 -32 -18 -23 -16 -63 3 -84 14 -16 14
-20 -1 -43 -37 -55 11 -136 79 -136 17 0 45 8 61 19 23 14 36 16 58 8 21 -7
33 -5 52 7 30 20 33 52 6 61 -15 4 -22 22 -31 78 -15 90 -23 105 -65 123 -42
17 -59 17 -110 -1z m114 -32 c15 -13 25 -38 32 -83 13 -82 24 -110 44 -110 9
0 13 -4 10 -10 -9 -15 -52 -12 -67 4 -11 11 -17 10 -41 -10 -52 -44 -127 -23
-127 36 0 35 25 57 88 75 49 15 52 17 46 43 -6 26 -37 62 -54 62 -4 0 -18 -9
-31 -19 -21 -17 -22 -22 -11 -41 10 -17 10 -21 -2 -26 -23 -9 -36 4 -36 37 0
24 6 33 33 44 44 19 91 18 116 -2z m-49 -42 c7 -14 6 -21 -3 -24 -11 -4 -36
20 -37 36 0 15 30 6 40 -12z"/>
<path d="M3395 2498 c-26 -15 -35 -28 -35 -54 0 -52 65 -50 89 3 23 50 -7 78
-54 51z m35 -31 c0 -14 -20 -37 -32 -37 -13 0 -9 38 5 43 21 9 27 7 27 -6z"/>
<path d="M3158 2613 c-29 -12 -38 -21 -38 -40 0 -16 7 -27 19 -30 15 -4 21
-20 30 -79 16 -112 14 -151 -9 -171 -24 -21 -26 -61 -4 -70 24 -9 81 23 97 54
26 50 28 89 12 204 -8 63 -18 122 -21 132 -6 21 -35 21 -86 0z m82 -140 c7
-57 9 -119 5 -139 -7 -40 -45 -84 -71 -84 -16 0 -15 3 3 23 32 34 36 60 23
160 -15 118 -17 127 -41 127 -31 0 -22 16 19 32 46 18 45 19 62 -119z"/>
<path d="M3010 2598 c-14 -5 -68 -11 -120 -12 -58 -2 -107 -8 -125 -17 -36
-17 -47 -58 -17 -66 16 -4 21 -17 27 -70 6 -58 5 -67 -15 -85 -12 -11 -19 -27
-16 -35 3 -8 6 -17 6 -19 0 -10 147 -3 158 8 18 18 14 49 -7 55 -19 5 -31 45
-31 106 0 27 1 27 24 12 28 -19 58 -9 77 26 15 29 18 22 27 -55 8 -60 7 -68
-10 -77 -12 -6 -18 -19 -16 -32 3 -21 8 -22 77 -21 84 2 111 17 92 53 -7 11
-18 21 -25 21 -9 0 -16 30 -24 100 -6 54 -13 104 -17 110 -8 12 -32 12 -65 -2z
m54 -90 c11 -118 17 -139 40 -148 26 -10 11 -17 -56 -23 -46 -4 -64 5 -33 17
16 6 19 39 8 125 -5 40 -11 55 -25 59 -24 6 -23 17 5 30 48 23 54 17 61 -60z
m-130 46 c18 -17 19 -24 10 -48 -9 -23 -34 -20 -34 3 0 26 -17 36 -36 20 -8
-6 -17 -9 -20 -7 -6 6 44 48 57 48 4 0 15 -7 23 -16z m-93 -16 c1 -13 2 -36 3
-53 1 -16 3 -54 4 -83 2 -45 5 -55 22 -59 33 -9 22 -23 -17 -23 -21 0 -48 -3
-60 -6 -13 -4 -23 -2 -23 4 0 5 10 12 21 15 19 5 21 11 16 44 -4 21 -7 60 -7
86 0 40 -3 50 -20 54 -28 7 -25 20 8 31 42 16 52 14 53 -10z"/>
<path d="M2519 2547 c-41 -27 -69 -79 -69 -127 0 -72 73 -150 140 -150 44 0
113 42 132 80 24 47 23 115 -2 155 -40 64 -137 85 -201 42z m149 -24 c33 -20
55 -78 47 -120 -3 -19 -19 -48 -35 -66 -26 -29 -34 -32 -85 -32 -51 0 -59 3
-86 33 -24 26 -29 41 -29 81 0 103 101 159 188 104z"/>
<path d="M2564 2522 c-51 -34 -40 -199 14 -203 68 -5 103 49 87 135 -11 59
-63 94 -101 68z m66 -48 c22 -57 1 -134 -36 -134 -23 0 -46 65 -38 108 9 49
11 52 40 52 17 0 27 -8 34 -26z"/>
<path d="M3023 2249 c-23 -8 -32 -29 -13 -29 6 0 10 -29 10 -67 0 -45 -3 -63
-10 -53 -7 12 -12 12 -35 0 -18 -10 -28 -11 -37 -2 -8 8 -1 12 26 17 28 6 36
12 36 29 0 45 -55 62 -92 29 -11 -9 -18 -11 -18 -5 0 7 -15 12 -36 12 -35 0
-35 -1 -29 -32 6 -31 5 -32 -10 -14 -8 11 -15 23 -15 27 0 11 -121 8 -142 -3
-10 -5 -18 -16 -18 -24 0 -10 -13 -2 -35 22 -33 35 -37 36 -81 30 -26 -3 -53
-6 -60 -6 -16 0 -19 -37 -4 -42 15 -5 29 -95 17 -107 -7 -7 -8 -14 -1 -21 18
-18 116 15 141 47 13 15 23 22 23 16 0 -7 11 -20 24 -28 29 -19 72 -11 87 17
14 27 4 34 -26 18 -19 -10 -28 -11 -37 -2 -9 9 -4 13 21 18 20 4 36 15 40 27
7 17 11 13 37 -31 34 -59 49 -57 68 8 15 52 33 63 33 20 0 -39 23 -63 60 -62
15 1 52 1 81 1 35 0 52 4 52 13 0 9 3 9 12 0 17 -17 74 -15 92 3 41 42 18 107
-41 113 -37 4 -77 -39 -70 -75 2 -12 0 -20 -4 -17 -5 3 -9 38 -9 79 0 41 -3
76 -7 78 -5 3 -18 1 -30 -4z m27 -88 c0 -54 4 -81 13 -84 6 -3 1 -6 -13 -6
-25 -1 -25 -1 -22 75 3 56 0 79 -10 85 -9 6 -7 9 10 9 21 0 22 -4 22 -79z
m-441 -27 c15 -35 14 -48 -8 -75 l-19 -24 5 47 c5 42 2 49 -22 72 l-28 26 30
-11 c17 -5 35 -21 42 -35z m369 34 c16 -16 15 -38 -2 -38 -8 0 -13 8 -12 18 2
24 -38 23 -42 -1 -2 -10 -1 -30 3 -44 5 -21 11 -24 35 -21 16 2 27 1 24 -4 -8
-12 -58 -10 -72 4 -7 7 -12 24 -12 39 0 47 49 76 78 47z m196 -4 c24 -24 20
-71 -6 -85 -21 -11 -22 -11 -10 4 7 9 12 31 10 49 -2 28 -7 33 -28 33 -21 0
-26 -5 -28 -33 -2 -18 2 -40 9 -48 6 -8 7 -14 2 -14 -34 0 -47 81 -15 99 25
15 48 13 66 -5z m-668 -3 c-6 -9 7 -92 19 -123 5 -14 2 -18 -14 -18 -12 0 -18
5 -16 13 6 13 -7 90 -20 120 -5 13 -2 17 15 17 11 0 19 -4 16 -9z m365 0 c-8
-5 -20 -7 -28 -4 -21 8 -15 13 15 13 20 0 23 -3 13 -9z m-311 -21 c24 -24 26
-63 4 -85 -23 -22 -33 -8 -41 53 -6 57 3 66 37 32z m164 4 c20 -19 20 -34 1
-34 -9 0 -12 6 -9 15 9 23 -26 32 -42 10 -8 -10 -11 -21 -6 -24 4 -3 7 -15 7
-26 0 -16 7 -20 32 -20 17 0 29 -3 26 -7 -8 -14 -60 -8 -73 7 -18 22 -15 66 6
82 23 17 39 16 58 -3z m83 -19 c9 -19 20 -32 25 -29 11 7 10 -7 -2 -26 -11
-17 -9 -18 -43 43 -19 36 -22 47 -11 47 8 0 22 -16 31 -35z m348 -1 c0 -19 -5
-29 -15 -29 -16 0 -25 28 -16 51 10 25 31 10 31 -22z m-308 -6 c-3 -8 -6 -5
-6 6 -1 11 2 17 5 13 3 -3 4 -12 1 -19z"/>
<path d="M3204 2179 c-3 -6 -1 -16 5 -22 15 -15 14 -77 -3 -109 -17 -32 -12
-38 31 -38 30 0 33 3 28 20 -5 15 -2 20 13 20 11 0 30 8 43 19 22 18 23 18 40
-3 12 -15 30 -22 61 -23 23 -1 58 -5 76 -9 l33 -6 -7 41 c-6 38 -5 41 16 39
27 -4 50 26 34 42 -16 16 -97 17 -102 2 -3 -10 -7 -8 -17 4 -16 22 -71 23 -92
1 -15 -14 -18 -14 -35 9 -16 19 -28 24 -68 24 -27 0 -52 -5 -56 -11z m56 -9
c11 -7 11 -10 2 -10 -9 0 -13 -16 -13 -52 1 -88 1 -88 -22 -88 -16 0 -18 3 -9
12 7 7 12 40 12 80 0 69 3 75 30 58z m62 -14 c13 -18 9 -63 -6 -75 -24 -20
-56 4 -56 40 0 24 4 30 18 27 12 -3 17 -13 16 -36 -1 -17 2 -29 7 -26 15 9 10
56 -8 76 -16 18 -16 18 3 12 10 -4 22 -12 26 -18z m70 -8 c-26 -26 -8 -88 26
-88 9 0 6 7 -9 20 l-24 19 37 1 c24 0 40 6 47 18 9 14 10 11 11 -15 0 -18 -4
-33 -10 -33 -5 0 -10 5 -10 11 0 6 -6 9 -12 7 -7 -3 -13 -11 -13 -19 0 -20
-40 -23 -59 -4 -28 29 -16 95 18 95 6 0 5 -5 -2 -12z m56 -16 c3 -19 -1 -22
-30 -21 -25 1 -27 3 -10 6 18 4 23 10 19 24 -3 13 -1 19 6 16 7 -2 13 -13 15
-25z m115 11 c4 -2 4 -9 1 -15 -4 -7 -9 -6 -14 1 -3 7 -15 9 -24 5 -14 -5 -17
-16 -14 -49 3 -39 2 -41 -20 -37 -13 3 -19 8 -13 11 5 4 12 25 13 48 3 39 5
41 33 41 17 0 33 -3 38 -5z"/>
</g>
</svg>
