<?xml version="1.0" standalone="no"?>
<!DOCTYPE svg PUBLIC "-//W3C//DTD SVG 20010904//EN"
 "http://www.w3.org/TR/2001/REC-SVG-20010904/DTD/svg10.dtd">
<svg version="1.0" xmlns="http://www.w3.org/2000/svg"
 width="500.000000pt" height="500.000000pt" viewBox="0 0 500.000000 500.000000"
 preserveAspectRatio="xMidYMid meet">

<g transform="translate(0.000000,500.000000) scale(0.100000,-0.100000)"
fill="#000000" stroke="none">
<path d="M3767 3751 c-8 -48 -53 -101 -86 -101 -11 0 -23 -4 -26 -10 -3 -6 4
-10 18 -10 38 0 75 -36 91 -88 12 -38 15 -42 15 -19 2 60 38 97 106 110 14 2
7 7 -24 17 -50 16 -68 40 -79 101 l-8 44 -7 -44z"/>
<path d="M3351 3577 c-1 -68 -27 -200 -46 -237 -17 -32 -61 -73 -100 -93 -35
-17 -110 -33 -210 -44 l-70 -7 87 -7 c162 -13 249 -53 290 -133 24 -47 47
-165 49 -256 2 -60 2 -57 10 33 9 109 30 195 61 245 40 65 163 110 308 113
l65 1 -65 9 c-184 24 -242 42 -287 91 -39 41 -63 113 -77 230 -11 93 -14 103
-15 55z"/>
<path d="M2802 2968 c-6 -14 -20 -29 -31 -33 -12 -3 -21 -10 -21 -15 0 -5 9
-12 21 -15 11 -4 25 -19 31 -33 l10 -27 10 28 c6 16 20 30 34 33 13 3 24 10
24 14 0 4 -11 11 -24 14 -14 3 -28 17 -34 33 l-10 28 -10 -27z"/>
<path d="M3141 2724 c-25 -32 -25 -33 -5 -62 30 -43 104 -20 104 33 0 55 -64
73 -99 29z"/>
<path d="M2980 2710 c-25 -25 -26 -52 -2 -73 38 -35 102 -9 102 40 0 25 -30
53 -58 53 -12 0 -31 -9 -42 -20z"/>
<path d="M1473 2713 c-20 -8 -15 -49 8 -64 16 -11 28 -44 50 -139 51 -212 46
-200 79 -200 28 0 34 7 106 151 l75 151 63 -7 c61 -6 64 -5 84 22 12 15 22 22
22 16 0 -7 6 -13 13 -13 10 0 12 -28 9 -127 -2 -71 -5 -134 -8 -141 -2 -7 -14
-12 -26 -10 -22 3 -23 5 -20 110 4 97 2 107 -15 117 -11 5 -28 8 -39 6 -10 -2
-31 -6 -45 -9 -36 -8 -43 -32 -18 -57 19 -19 20 -28 14 -89 -6 -55 -10 -69
-26 -73 -21 -6 -26 -39 -6 -55 6 -5 79 -13 160 -17 146 -7 148 -7 154 14 l6
22 22 -21 c28 -26 98 -38 120 -20 22 19 18 49 -8 59 -13 5 -40 30 -61 56 l-38
46 22 24 c23 24 70 38 95 29 12 -5 15 -24 15 -89 0 -76 2 -84 26 -109 48 -47
150 -30 142 25 -2 20 -9 24 -35 24 l-33 0 0 72 c0 66 2 72 21 75 53 8 49 70
-5 76 -14 2 -24 7 -21 12 3 5 1 19 -5 30 -15 28 -51 23 -67 -9 -19 -40 -46
-48 -121 -39 -72 9 -95 -2 -85 -41 3 -10 -1 -22 -8 -26 -10 -7 -11 13 -6 91 3
55 2 106 -3 113 -10 17 -98 8 -118 -13 -12 -12 -17 -11 -33 5 -23 23 -47 24
-77 4 -16 -12 -41 -15 -94 -13 -64 3 -73 1 -76 -16 -2 -10 1 -29 8 -41 10 -19
7 -31 -18 -80 l-29 -58 -18 74 c-21 86 -38 125 -63 138 -24 12 -75 21 -89 14z
m627 -324 c0 -5 -4 -9 -10 -9 -5 0 -10 7 -10 16 0 8 5 12 10 9 6 -3 10 -10 10
-16z m-15 -29 c3 -5 1 -10 -4 -10 -6 0 -11 5 -11 10 0 6 2 10 4 10 3 0 8 -4
11 -10z"/>
<path d="M3345 2645 c-22 -8 -45 -22 -52 -32 -18 -23 -16 -63 3 -84 14 -16 14
-20 -1 -43 -37 -55 11 -136 79 -136 17 0 45 8 61 19 23 14 36 16 58 8 21 -7
33 -5 52 7 30 20 33 52 6 61 -15 4 -22 22 -31 78 -15 90 -23 105 -65 123 -42
17 -59 17 -110 -1z m65 -74 c7 -14 6 -21 -3 -24 -11 -4 -36 20 -37 36 0 15 30
6 40 -12z m20 -104 c0 -14 -20 -37 -32 -37 -13 0 -9 38 5 43 21 9 27 7 27 -6z"/>
<path d="M3158 2613 c-29 -12 -38 -21 -38 -40 0 -16 7 -27 19 -30 15 -4 21
-20 30 -79 16 -112 14 -151 -9 -171 -24 -21 -26 -61 -4 -70 24 -9 81 23 97 54
26 50 28 89 12 204 -8 63 -18 122 -21 132 -6 21 -35 21 -86 0z"/>
<path d="M3010 2598 c-14 -5 -68 -11 -120 -12 -58 -2 -107 -8 -125 -17 -36
-17 -47 -58 -17 -66 16 -4 21 -17 27 -70 6 -58 5 -67 -15 -85 -12 -11 -19 -27
-16 -35 3 -8 6 -17 6 -19 0 -10 147 -3 158 8 18 18 14 49 -7 55 -19 5 -31 45
-31 106 0 27 1 27 24 12 28 -19 58 -9 77 26 15 29 18 22 27 -55 8 -60 7 -68
-10 -77 -12 -6 -18 -19 -16 -32 3 -21 8 -22 77 -21 84 2 111 17 92 53 -7 11
-18 21 -25 21 -9 0 -16 30 -24 100 -6 54 -13 104 -17 110 -8 12 -32 12 -65 -2z"/>
<path d="M2519 2547 c-41 -27 -69 -79 -69 -127 0 -72 73 -150 140 -150 44 0
113 42 132 80 24 47 23 115 -2 155 -40 64 -137 85 -201 42z m111 -73 c22 -57
1 -134 -36 -134 -23 0 -46 65 -38 108 9 49 11 52 40 52 17 0 27 -8 34 -26z"/>
<path d="M3023 2249 c-23 -8 -32 -29 -13 -29 6 0 10 -29 10 -67 0 -45 -3 -63
-10 -53 -7 12 -12 12 -35 0 -18 -10 -28 -11 -37 -2 -8 8 -1 12 26 17 28 6 36
12 36 29 0 45 -55 62 -92 29 -11 -9 -18 -11 -18 -5 0 7 -15 12 -36 12 -35 0
-35 -1 -29 -32 6 -31 5 -32 -10 -14 -8 11 -15 23 -15 27 0 11 -121 8 -142 -3
-10 -5 -18 -16 -18 -24 0 -10 -13 -2 -35 22 -33 35 -37 36 -81 30 -26 -3 -53
-6 -60 -6 -16 0 -19 -37 -4 -42 15 -5 29 -95 17 -107 -7 -7 -8 -14 -1 -21 18
-18 116 15 141 47 13 15 23 22 23 16 0 -7 11 -20 24 -28 29 -19 72 -11 87 17
14 27 4 34 -26 18 -19 -10 -28 -11 -37 -2 -9 9 -4 13 21 18 20 4 36 15 40 27
7 17 11 13 37 -31 34 -59 49 -57 68 8 15 52 33 63 33 20 0 -39 23 -63 60 -62
15 1 52 1 81 1 35 0 52 4 52 13 0 9 3 9 12 0 17 -17 74 -15 92 3 41 42 18 107
-41 113 -37 4 -77 -39 -70 -75 2 -12 0 -20 -4 -17 -5 3 -9 38 -9 79 0 41 -3
76 -7 78 -5 3 -18 1 -30 -4z m-463 -109 c24 -24 26 -63 4 -85 -23 -22 -33 -8
-41 53 -6 57 3 66 37 32z m595 -16 c0 -19 -5 -29 -15 -29 -16 0 -25 28 -16 51
10 25 31 10 31 -22z"/>
<path d="M3204 2179 c-3 -6 -1 -16 5 -22 15 -15 14 -77 -3 -109 -17 -32 -12
-38 31 -38 30 0 33 3 28 20 -5 15 -2 20 13 20 11 0 30 8 43 19 22 18 23 18 40
-3 12 -15 30 -22 61 -23 23 -1 58 -5 76 -9 l33 -6 -7 41 c-6 38 -5 41 16 39
27 -4 50 26 34 42 -16 16 -97 17 -102 2 -3 -10 -7 -8 -17 4 -16 22 -71 23 -92
1 -15 -14 -18 -14 -35 9 -16 19 -28 24 -68 24 -27 0 -52 -5 -56 -11z m94 -54
c3 -26 -13 -50 -27 -41 -6 4 -11 21 -11 37 0 24 4 30 18 27 9 -2 18 -12 20
-23z m177 -53 c-3 -4 -10 0 -15 8 -7 11 -11 12 -25 0 -14 -11 -19 -11 -33 3
-15 16 -14 17 21 17 26 0 40 5 45 18 5 13 8 11 10 -11 2 -16 1 -32 -3 -35z"/>
</g>
</svg>
