<svg width="262" height="40" viewBox="0 0 262 40" fill="none" xmlns="http://www.w3.org/2000/svg">
<g clip-path="url(#clip0_1654_148)">
<path d="M101.77 4.62H107.06V34.47H101.77V39.08H112.32V0H101.77V4.62ZM128.33 4.62V0H117.78V39.08H128.33V34.47H123.04V4.62H128.33Z" fill="#D6E03D"/>
<path d="M5.4 32.74H0V6.45996H12.73C13.6811 6.47245 14.6237 6.64137 15.52 6.95996C16.5354 7.30678 17.4706 7.85431 18.27 8.56996C19.171 9.37669 19.8961 10.3605 20.4 11.46C21.0117 12.8337 21.3089 14.3267 21.27 15.83C21.27 19.1633 20.3033 21.7733 18.37 23.66C17.8066 24.2361 17.1552 24.7188 16.44 25.09C15.8367 25.3949 15.2075 25.6459 14.56 25.84C14.0716 25.9893 13.5688 26.0865 13.06 26.13H12.22H5.4V32.74ZM5.4 20.74H12.27C12.6073 20.7284 12.9425 20.6814 13.27 20.6C13.7099 20.4833 14.1126 20.2561 14.44 19.94C14.8753 19.5199 15.2162 19.012 15.44 18.45C15.7509 17.606 15.8903 16.7085 15.85 15.81C15.876 15.1287 15.7672 14.4491 15.53 13.81C15.361 13.3557 15.0869 12.9479 14.73 12.62C14.4366 12.3672 14.097 12.1736 13.73 12.05C13.405 11.9534 13.0689 11.8996 12.73 11.89H5.43L5.4 20.74Z" fill="white"/>
<path d="M36.27 32.7C34.5191 32.7238 32.7823 32.3833 31.17 31.7C29.6174 31.0325 28.2083 30.0716 27.02 28.87C25.8506 27.6566 24.9179 26.2356 24.27 24.68C23.5837 23.069 23.23 21.336 23.23 19.585C23.23 17.8339 23.5837 16.1009 24.27 14.49C24.9336 12.9367 25.8835 11.5221 27.07 10.32C28.2613 9.12445 29.6698 8.16731 31.22 7.49998C32.831 6.81371 34.564 6.45996 36.315 6.45996C38.0661 6.45996 39.799 6.81371 41.41 7.49998C42.9615 8.16492 44.3705 9.12234 45.56 10.32C46.7496 11.5217 47.7028 12.9363 48.37 14.49C49.0496 16.1027 49.3997 17.835 49.3997 19.585C49.3997 21.335 49.0496 23.0673 48.37 24.68C47.7002 26.2293 46.7472 27.6402 45.56 28.84C44.3738 30.0441 42.9642 31.0054 41.41 31.67C39.7879 32.3702 38.0366 32.7211 36.27 32.7ZM36.27 11.86C35.2383 11.8508 34.2162 12.0586 33.27 12.47C32.3597 12.8599 31.5343 13.4238 30.84 14.13C30.1699 14.8427 29.6375 15.6734 29.27 16.58C28.8673 17.5289 28.6598 18.5492 28.6598 19.58C28.6598 20.6108 28.8673 21.6311 29.27 22.58C29.6585 23.4921 30.2148 24.3232 30.91 25.03C31.5831 25.732 32.3841 26.2988 33.27 26.7C34.2206 27.0929 35.2416 27.2869 36.27 27.27C37.3017 27.2792 38.3238 27.0713 39.27 26.66C41.1124 25.8534 42.5834 24.3824 43.39 22.54C43.7861 21.5894 43.99 20.5698 43.99 19.54C43.99 18.5102 43.7861 17.4906 43.39 16.54C42.5814 14.7107 41.109 13.2562 39.27 12.47C38.3253 12.0539 37.3022 11.8459 36.27 11.86Z" fill="white"/>
<path d="M69.91 6.48996H75.49V32.74H69.34L58.04 15.74V32.74H52.46V6.45996H58.61L69.91 23.46V6.48996Z" fill="white"/>
<path d="M89.27 32.99C87.9886 33.0014 86.7154 32.7847 85.51 32.35C84.394 31.9471 83.3505 31.3663 82.42 30.63C81.5392 29.9452 80.8075 29.0877 80.27 28.11C79.7643 27.1693 79.4998 26.118 79.5 25.05H84.94C84.9605 25.3249 85.0652 25.5868 85.24 25.8C85.4784 26.1227 85.7691 26.4032 86.1 26.63C86.5139 26.911 86.9649 27.1332 87.44 27.29C88.0177 27.4779 88.6225 27.5691 89.23 27.56C90.0929 27.5911 90.954 27.4622 91.77 27.18C92.2808 26.9966 92.7524 26.7184 93.16 26.36C93.4912 26.0224 93.738 25.6112 93.88 25.16C93.8799 24.8723 93.8599 24.585 93.82 24.3C93.7874 24.0106 93.6729 23.7366 93.49 23.51C93.0228 23.0327 92.424 22.7054 91.77 22.57C90.7899 22.3217 89.7808 22.2073 88.77 22.23C87.9467 22.2349 87.1253 22.151 86.32 21.98C85.6645 21.832 85.0249 21.6211 84.41 21.35C83.9037 21.1238 83.4241 20.8421 82.98 20.51C82.615 20.2359 82.2799 19.9242 81.98 19.58C81.4773 19.0473 81.0651 18.4359 80.76 17.77C80.4991 17.199 80.2981 16.6025 80.16 15.99C80.0486 15.5072 79.9816 15.0151 79.96 14.52C79.96 14.11 79.96 13.8 79.96 13.61C79.96 13.42 79.96 13.18 80.03 12.8C80.0679 12.3829 80.1483 11.9708 80.27 11.57C80.4456 11.0709 80.6596 10.5861 80.91 10.12C81.2109 9.57319 81.5918 9.07436 82.04 8.64002C83.0109 7.73689 84.1548 7.03998 85.4027 6.59138C86.6505 6.14278 87.9763 5.95181 89.3 6.03002C90.6127 5.95413 91.9268 6.15332 93.1581 6.61483C94.3893 7.07633 95.5106 7.78997 96.45 8.71002C97.0082 9.27942 97.4769 9.93014 97.84 10.64C98.1454 11.2327 98.3867 11.8562 98.56 12.5C98.6838 12.9823 98.7675 13.4739 98.81 13.97C98.81 14.37 98.81 14.62 98.81 14.72L93.38 14.54V14.61C93.3738 14.2723 93.3268 13.9365 93.24 13.61C93.1268 13.2362 92.9282 12.8939 92.66 12.61C92.314 12.2464 91.8851 11.9719 91.41 11.81C90.7235 11.5674 89.9977 11.4554 89.27 11.48C88.5748 11.4617 87.8807 11.546 87.21 11.73C86.7805 11.854 86.3795 12.0613 86.03 12.34C85.7861 12.5394 85.5969 12.7975 85.48 13.09C85.3923 13.2962 85.3415 13.5162 85.33 13.74V13.99C85.3285 14.2318 85.3519 14.4731 85.4 14.71C85.4 14.9 85.51 15.11 85.58 15.33C85.6557 15.5691 85.7897 15.7857 85.97 15.96C86.7443 16.5823 87.7314 16.8766 88.72 16.78C92.1067 16.78 94.72 17.5133 96.56 18.98C97.4734 19.7268 98.1983 20.6781 98.676 21.7569C99.1537 22.8357 99.3709 24.0117 99.31 25.19C99.2859 26.0516 99.0957 26.9005 98.75 27.69C98.358 28.658 97.7728 29.5359 97.03 30.27C96.1281 31.1357 95.0645 31.8153 93.9 32.27C92.4174 32.8059 90.8453 33.0504 89.27 32.99Z" fill="white"/>
<path d="M137.2 32.74H131.8V6.45996H144.53C145.481 6.47245 146.424 6.64137 147.32 6.95996C148.342 7.30435 149.284 7.852 150.09 8.56996C151.005 9.3757 151.746 10.3589 152.27 11.46C152.878 12.8345 153.172 14.3275 153.13 15.83C153.13 19.1633 152.163 21.7733 150.23 23.66C149.657 24.2386 148.996 24.7215 148.27 25.09C147.666 25.3949 147.037 25.6459 146.39 25.84C145.901 25.9885 145.399 26.0857 144.89 26.13H144.05H137.22L137.2 32.74ZM137.2 20.74H144.1C144.437 20.7277 144.772 20.6808 145.1 20.6C145.537 20.4829 145.936 20.2557 146.26 19.94C146.695 19.5195 147.036 19.0117 147.26 18.45C147.565 17.6044 147.704 16.7081 147.67 15.81C147.691 15.129 147.582 14.4503 147.35 13.81C147.178 13.3549 146.9 12.9471 146.54 12.62C146.249 12.3637 145.909 12.1697 145.54 12.05C145.215 11.9534 144.879 11.8996 144.54 11.89H137.25L137.2 20.74Z" fill="white"/>
<path d="M168.09 32.7C166.342 32.7236 164.609 32.3831 163 31.7C161.446 31.0354 160.036 30.0742 158.85 28.87C157.663 27.6702 156.71 26.2594 156.04 24.71C155.36 23.0974 155.01 21.365 155.01 19.615C155.01 17.865 155.36 16.1327 156.04 14.52C156.707 12.9663 157.66 11.5518 158.85 10.35C160.039 9.15237 161.448 8.19495 163 7.53001C164.611 6.84374 166.344 6.48999 168.095 6.48999C169.846 6.48999 171.579 6.84374 173.19 7.53001C174.74 8.19734 176.149 9.15448 177.34 10.35C178.526 11.5522 179.476 12.9668 180.14 14.52C180.826 16.131 181.18 17.864 181.18 19.615C181.18 21.3661 180.826 23.0991 180.14 24.71C179.474 26.2589 178.524 27.6698 177.34 28.87C176.152 30.0716 174.743 31.0325 173.19 31.7C171.577 32.3822 169.841 32.7227 168.09 32.7ZM168.09 11.86C167.058 11.8505 166.036 12.0584 165.09 12.47C164.18 12.86 163.354 13.4238 162.66 14.13C161.965 14.8391 161.406 15.6694 161.01 16.58C160.607 17.5289 160.4 18.5492 160.4 19.58C160.4 20.6108 160.607 21.6311 161.01 22.58C161.406 23.4906 161.965 24.321 162.66 25.03C163.354 25.7394 164.179 26.3066 165.09 26.7C166.038 27.1066 167.059 27.3163 168.09 27.3163C169.121 27.3163 170.142 27.1066 171.09 26.7C172.934 25.8997 174.404 24.4263 175.2 22.58C175.603 21.6311 175.81 20.6108 175.81 19.58C175.81 18.5492 175.603 17.5289 175.2 16.58C174.407 14.734 172.936 13.2628 171.09 12.47C170.145 12.0563 169.122 11.8484 168.09 11.86Z" fill="white"/>
<path d="M201.71 6.48996H207.27V32.74H201.12L189.81 15.74V32.74H184.27V6.45996H190.42L201.72 23.46L201.71 6.48996Z" fill="white"/>
<path d="M229.13 11.93H223.05V32.74H217.58V11.93H211.5V6.48999H229.13V11.93Z" fill="white"/>
<path d="M238.71 6.53003V32.74H233.27V6.53003H238.71Z" fill="white"/>
<path d="M251.75 32.99C250.472 33.0007 249.202 32.784 248 32.35C246.88 31.9481 245.833 31.3672 244.9 30.63C244.033 29.9412 243.316 29.084 242.79 28.11C242.287 27.1686 242.026 26.1172 242.03 25.05H247.46C247.48 25.3249 247.585 25.5868 247.76 25.8C248.001 26.1203 248.291 26.4004 248.62 26.63C249.036 26.9129 249.491 27.1351 249.97 27.29C250.544 27.4779 251.146 27.5691 251.75 27.56C252.613 27.5911 253.474 27.4622 254.29 27.18C254.802 26.9991 255.274 26.7206 255.68 26.36C256.015 26.0258 256.263 25.6135 256.4 25.16C256.398 24.8727 256.381 24.5856 256.35 24.3C256.309 24.011 256.192 23.7382 256.01 23.51C255.537 23.0292 254.931 22.7017 254.27 22.57C253.29 22.3213 252.281 22.2069 251.27 22.23C250.446 22.236 249.625 22.1521 248.82 21.98C248.161 21.8335 247.518 21.6224 246.9 21.35C246.397 21.1239 245.92 20.8421 245.48 20.51C245.113 20.2379 244.778 19.926 244.48 19.58C243.98 19.047 243.571 18.4355 243.27 17.77C243.002 17.2009 242.797 16.604 242.66 15.99C242.548 15.5072 242.481 15.0151 242.46 14.52C242.46 14.11 242.46 13.8 242.46 13.61C242.471 13.3387 242.498 13.0683 242.54 12.8C242.592 12.3798 242.693 11.967 242.84 11.57C243.015 11.0709 243.229 10.5861 243.48 10.12C243.784 9.57539 244.165 9.07702 244.61 8.64002C245.581 7.73689 246.725 7.03998 247.972 6.59138C249.22 6.14278 250.546 5.95181 251.87 6.03002C253.183 5.95351 254.497 6.15241 255.728 6.61395C256.96 7.07549 258.081 7.78946 259.02 8.71002C259.581 9.27921 260.053 9.92988 260.42 10.64C260.722 11.2329 260.96 11.8564 261.13 12.5C261.258 12.9812 261.342 13.4733 261.38 13.97C261.38 14.37 261.38 14.62 261.38 14.72L255.94 14.54V14.61C255.934 14.2723 255.887 13.9365 255.8 13.61C255.687 13.2362 255.488 12.8939 255.22 12.61C254.876 12.2483 254.451 11.974 253.98 11.81C253.29 11.5675 252.561 11.4556 251.83 11.48C251.135 11.4617 250.44 11.546 249.77 11.73C249.341 11.8562 248.941 12.0632 248.59 12.34C248.383 12.5116 248.214 12.7251 248.095 12.9663C247.976 13.2076 247.91 13.4712 247.9 13.74V13.99C247.898 14.2318 247.922 14.4731 247.97 14.71C248.02 14.9 248.08 15.11 248.15 15.33C248.225 15.5691 248.359 15.7857 248.54 15.96C249.317 16.5838 250.308 16.8782 251.3 16.78C254.68 16.78 257.29 17.5133 259.13 18.98C260.043 19.7268 260.768 20.6781 261.246 21.7569C261.724 22.8357 261.941 24.0117 261.88 25.19C261.86 26.051 261.673 26.9 261.33 27.69C260.922 28.6595 260.324 29.5369 259.57 30.27C258.666 31.1335 257.603 31.8128 256.44 32.27C254.938 32.8114 253.345 33.0559 251.75 32.99Z" fill="white"/>
</g>
<defs>
<clipPath id="clip0_1654_148">
<rect width="261.87" height="39.08" fill="white"/>
</clipPath>
</defs>
</svg>
