<svg width="278" height="448" viewBox="0 0 278 448" fill="none" xmlns="http://www.w3.org/2000/svg">
<path d="M50.8522 112.788C55.652 109.014 60.4341 107.353 65.3005 107.935C76.9892 109.45 86.7833 124.842 92.2434 149.94C102.811 199.154 94.5166 272.437 73.7612 313.321C64.2494 331.928 53.3437 341.553 42.9434 340.074C31.2547 338.559 21.4606 323.167 16.0005 298.069C5.43292 248.855 13.7273 175.572 34.4827 134.688C39.4376 124.703 45.1443 117.276 50.8522 112.788ZM72.76 312.849C93.4877 272.197 101.754 199.145 91.159 150.163C85.7732 125.426 76.4149 110.322 65.0876 108.732C55.1231 107.54 44.5045 116.73 35.2522 135.132C14.5245 175.785 6.25784 248.836 16.8531 297.819C22.239 322.555 31.5973 337.66 42.9246 339.249C52.8891 340.441 63.5077 331.252 72.76 312.849Z" fill="#00A79D"/>
<path d="M53.4296 109.081C59.0077 104.694 64.6425 102.783 69.9169 103.884C82.4494 106.205 92.2258 123.71 96.7602 151.636C105.364 204.493 93.2612 280.141 69.8082 319.998C59.4803 337.567 48.12 346.08 37.7751 344.138C25.2426 341.816 15.4662 324.311 10.9319 296.385C2.32783 243.528 14.4308 167.88 37.8839 128.023C43.0062 119.587 48.2406 113.161 53.4296 109.081ZM53.9841 338.32C59.1731 334.239 64.2778 327.916 69.2704 319.581C92.5937 279.827 104.771 204.54 96.0372 151.784C91.5772 124.22 82.0048 106.975 69.9358 104.709C60.0544 102.822 49.0555 111.261 38.8851 128.496C15.5617 168.25 3.38449 243.537 12.1182 296.292C16.5783 323.856 26.1507 341.102 38.2197 343.368C43.1604 344.312 48.5357 342.604 53.9841 338.32Z" fill="#00A79D"/>
<path d="M56.0297 105.982C62.6456 100.78 69.1053 98.8494 75.2789 100.293C88.6275 103.652 98.2842 123.141 101.865 154.126C108.274 210.598 92.0839 287.991 65.9609 326.588C54.8447 342.887 43.2338 350.548 32.8423 348.012C19.4937 344.653 9.83702 325.164 6.25617 294.18C-0.152557 237.707 16.0373 160.314 42.1603 121.717C46.6252 114.847 51.4893 109.553 56.0297 105.982ZM51.2478 341.517C55.7881 337.947 60.5225 332.754 65.0894 326.014C91.0827 287.519 107.115 210.46 100.808 154.117C97.4039 123.623 88.0809 104.292 75.0661 101.09C65.1381 98.61 53.7866 106.067 42.9298 122.162C16.9365 160.657 0.904103 237.716 7.21082 294.059C10.6154 324.552 19.9383 343.884 32.9532 347.086C38.6634 348.474 44.8913 346.515 51.2478 341.517Z" fill="#00A79D"/>
<path d="M58.5016 102.996C66.2851 96.8756 73.6994 94.8243 80.6149 96.9441C95.0112 101.369 104.363 123.407 106.555 157.163C110.434 217.095 90.0833 295.87 61.2161 332.846C49.2837 348.107 37.4777 354.452 27.1694 351.221C12.773 346.796 3.42112 324.759 1.2295 291.002C-2.65019 231.071 17.7009 152.295 46.5681 115.319C50.7093 110.173 54.6099 106.057 58.5016 102.996ZM48.6705 344.391C52.5623 341.33 56.4628 337.213 60.3446 332.272C89.0821 295.398 109.276 216.956 105.6 157.284C103.483 123.889 94.2052 102.213 80.3743 97.973C70.3997 94.8997 58.9551 101.17 47.3099 115.996C18.5724 152.87 -1.62124 231.311 2.05443 290.983C4.17175 324.378 13.4493 346.055 27.2802 350.294C34.0936 352.284 41.2763 350.205 48.6705 344.391Z" fill="#00A79D"/>
<path d="M60.651 100.883C69.9911 93.5383 78.7216 91.2917 86.7126 94.2453C101.897 99.9397 111.074 124.425 111.747 161.055C112.893 224.185 88.075 303.954 56.4169 338.716C43.9557 352.504 31.8247 357.634 21.4698 353.81C6.28507 348.116 -2.89164 323.631 -3.56429 287.001C-4.71091 223.871 20.1073 144.102 51.7654 109.34C54.6282 106.039 57.6673 103.229 60.651 100.883ZM46.7896 346.496C49.6435 344.252 52.6826 341.442 55.6751 338.04C87.0738 303.482 111.864 223.945 110.69 161.046C110.036 125.241 100.887 100.524 86.268 95.0148C76.3765 91.2463 64.4773 96.4046 52.4052 109.886C21.0066 144.444 -3.78399 223.981 -2.60965 286.88C-1.95587 322.685 7.19314 347.402 21.8124 352.911C29.1082 355.782 37.7089 353.637 46.7896 346.496Z" fill="#00A79D"/>
<path d="M62.2072 99.4505C73.3635 90.6776 83.9012 88.0596 92.8103 92.1807C108.756 99.3764 117.572 126.874 116.42 165.989C114.5 232.161 85.0655 312.2 50.774 344.414C37.6818 356.599 25.328 360.645 15.0562 356.126C-0.889201 348.93 -9.7056 321.433 -8.55325 282.317C-6.63307 216.146 22.801 136.106 57.0925 103.892C58.7046 102.205 60.5208 100.777 62.2072 99.4505ZM50.1619 343.636C84.3237 311.524 113.6 231.818 115.493 165.878C116.59 127.226 107.977 99.9884 92.3657 92.9502C82.4276 88.5885 70.4352 92.5604 57.7323 104.439C23.5705 136.551 -5.70614 216.257 -7.59861 282.196C-8.69552 320.848 -0.0831284 348.086 15.5285 355.124C25.4665 359.486 37.459 355.514 50.1619 343.636Z" fill="#00A79D"/>
<path d="M62.899 98.6921C76.5201 87.9811 89.0691 85.251 99.3597 90.5951C116.27 99.5514 124.29 129.774 121.183 171.476C115.992 240.43 81.7659 320.249 44.7944 349.322C31.1734 360.033 18.6243 362.763 8.33371 357.419C-8.57636 348.462 -16.5967 318.24 -13.4897 276.537C-8.29868 207.584 25.9276 127.765 62.899 98.6921ZM44.4141 348.571C81.1261 319.702 115.195 240.217 120.358 171.495C123.41 130.257 115.464 100.395 99.0171 91.4943C89.19 86.2057 76.8727 88.9634 63.6408 99.3684C26.7991 128.339 -7.26972 207.824 -12.433 276.546C-15.6144 317.887 -7.56627 347.878 8.90805 356.547C18.7352 361.836 31.0525 359.078 44.4141 348.571C44.2844 348.673 44.2844 348.673 44.4141 348.571Z" fill="#00A79D"/>
<path d="M62.8886 98.7039C64.9642 97.0718 67.1418 95.5693 69.3194 94.0669C83.4417 85.0612 96.3156 83.5452 106.366 89.9183C124.083 100.969 131.307 133.917 126.041 177.947C117.376 249.423 78.2087 328.298 38.6127 353.767C24.4905 362.772 11.6166 364.288 1.56651 357.915C-16.1508 346.864 -23.3751 313.916 -18.1093 269.887C-9.91464 202.35 25.528 128.083 62.8886 98.7039ZM44.4037 348.583C81.5049 319.408 116.92 245.372 124.985 177.938C130.325 134.27 123.073 101.553 105.791 90.7898C95.9453 84.6762 83.5626 86.0158 69.8018 94.9473C30.4652 120.211 -8.674 198.855 -17.3121 270.1C-22.6522 313.768 -15.4002 346.484 1.88138 357.248C11.7274 363.361 24.1101 362.022 37.871 353.09C40.1506 351.717 42.3282 350.215 44.4037 348.583Z" fill="#00A79D"/>
<path d="M61.8672 99.5074C66.667 95.7331 71.3837 92.6539 76.1469 90.168C90.6683 82.7378 103.71 82.7697 113.751 90.1994C132.118 103.678 138.315 139.324 130.556 185.524C118.212 259.263 73.9554 336.472 31.6883 357.742C17.1668 365.173 4.12543 365.141 -5.91576 357.711C-24.2829 344.232 -30.4794 308.586 -22.7211 262.387C-11.6336 197.194 24.3769 128.988 61.8672 99.5074ZM45.5599 347.884C82.7908 318.607 118.774 250.633 129.731 185.542C137.332 139.677 131.21 104.392 113.279 91.2006C103.441 84.0304 90.8635 84.0539 76.6015 91.2801C71.968 93.664 67.1216 96.8452 62.4516 100.518C25.2207 129.794 -10.7621 197.768 -21.7199 262.859C-29.3207 308.725 -23.1985 344.009 -5.26712 357.201C4.57005 364.371 17.148 364.348 31.41 357.121C36.1732 354.635 40.8899 351.556 45.5599 347.884Z" fill="#00A79D"/>
<path d="M59.3287 101.08C67.3716 94.7553 75.3502 89.9509 83.2092 87.13C98.3338 81.5348 111.543 83.1146 121.575 91.6009C140.332 107.712 145.269 146.028 134.944 194.036C118.643 269.417 69.1484 344.237 24.5994 361.004C9.47473 366.599 -3.73411 365.019 -13.7664 356.533C-32.5239 340.421 -37.4609 302.106 -27.1359 254.098C-13.6001 192.018 22.2275 130.255 59.3287 101.08ZM47.9975 346.173C84.969 317.1 120.639 255.67 134.045 193.693C144.315 146.149 139.452 108.194 121.028 92.2407C111.33 83.9118 98.4547 82.4895 83.6915 88.0103C39.4019 104.573 -9.83274 179.189 -25.9772 254.236C-36.2468 301.781 -31.3841 339.735 -12.9604 355.689C-3.26179 364.018 9.61332 365.44 24.3765 359.919C32.1057 357.2 40.0844 352.396 47.9975 346.173Z" fill="#00A79D"/>
<path d="M55.2622 103.441C67.1969 94.056 79.1327 87.6094 90.7548 84.7684C106.381 80.8786 119.859 84.1359 129.697 94.2443C148.66 113.553 152.004 154.382 138.963 203.475C118.5 280.239 63.7494 351.845 17.0015 363.412C1.37566 367.302 -12.1026 364.045 -21.941 353.936C-40.9036 334.627 -44.2474 293.799 -31.207 244.706C-15.723 186.973 19.0691 131.902 55.2622 103.441ZM52.0117 343.859C88.0751 315.501 122.71 260.763 138.064 203.132C151.077 154.271 147.678 113.906 129.049 94.7544C119.516 85.0351 106.27 81.8055 91.0054 85.6211C44.517 96.9847 -9.97444 168.386 -30.2801 244.817C-43.2927 293.678 -39.8935 334.043 -21.2647 353.195C-11.7323 362.914 1.51423 366.144 16.7786 362.328C28.271 359.589 40.2068 353.142 52.0117 343.859Z" fill="#00A79D"/>
<path d="M49.5004 106.5C66.1051 93.4426 82.9528 85.2329 98.6907 83.3544C115.022 81.4292 128.742 86.5958 138.386 98.3264C157.063 121.009 158.711 164.22 142.779 213.908C118.006 291.332 57.9521 359.13 9.08863 364.804C-7.24246 366.729 -20.9625 361.562 -30.6069 349.832C-49.2835 327.149 -50.932 283.938 -34.9999 234.25C-18.1421 181.735 14.864 133.736 49.5004 106.5ZM57.8985 340.908C92.4052 313.773 125.282 265.877 141.88 213.566C157.655 164.212 156.08 121.362 137.608 98.9385C128.167 87.4673 114.781 82.4581 98.8115 84.309C50.1798 90.0102 -9.35554 157.4 -34.1007 234.592C-49.8753 283.947 -48.3011 326.796 -29.8285 349.22C-20.3882 360.691 -7.00189 365.7 8.96773 363.849C24.7056 361.97 41.4235 353.863 57.8985 340.908Z" fill="#00A79D"/>
<path d="M41.9102 109.949C63.8336 92.7092 86.6497 82.7454 107.088 82.8392C124.226 83.0085 138.16 90.3161 147.555 104.132C165.454 130.366 164.972 175.672 146.361 225.157C116.972 302.852 51.7534 365.684 0.931716 365.129C-16.2066 364.96 -30.1407 357.652 -39.5356 343.836C-57.435 317.603 -56.9525 272.296 -38.3417 222.811C-20.814 176.488 9.47909 135.451 41.9102 109.949ZM65.4695 337.473C97.6411 312.175 127.804 271.24 145.332 224.917C163.915 175.663 164.472 130.718 146.675 104.615C137.484 91.0579 123.754 84.0097 106.977 83.7661C56.5166 83.1373 -8.31319 145.663 -37.4424 223.154C-56.0256 272.407 -56.5824 317.352 -38.7849 343.456C-29.5941 357.013 -15.864 364.061 0.91285 364.304C21.2211 364.5 43.8055 354.509 65.4695 337.473Z" fill="#00A79D"/>
<path d="M32.4409 113.41C60.2019 91.5804 90.0432 79.8712 115.581 83.513C133.498 86.0085 147.823 95.9483 156.811 112.184C173.47 141.912 170.55 188.925 149.214 237.614C115.163 314.986 44.7601 372.027 -7.70492 364.577C-25.6227 362.082 -39.9472 352.142 -48.9352 335.906C-65.5663 305.946 -62.6744 259.165 -41.2085 210.374C-23.7893 170.854 3.12322 136.465 32.4409 113.41ZM74.9246 334.031C104.113 311.079 130.997 276.921 148.444 237.169C169.623 188.814 172.487 142.265 156.06 112.564C147.146 96.6901 133.156 86.9077 115.47 84.4399C63.3384 77.1474 -6.54534 133.781 -40.439 210.819C-61.7475 259.276 -64.6116 305.826 -48.1846 335.526C-39.2708 351.4 -25.2801 361.182 -7.59406 363.65C17.7115 367.264 47.2934 355.759 74.9246 334.031Z" fill="#00A79D"/>
<path d="M21.7497 116.355C55.7375 89.6283 93.5775 76.8778 124.307 85.2539C143.311 90.4648 157.868 103.371 166.292 122.359C180.987 155.731 175.584 203.857 151.633 250.823C112.771 327.15 37.2955 377.473 -16.5257 362.692C-35.5291 357.481 -50.0864 344.575 -58.5102 325.586C-73.2054 292.215 -67.8022 244.088 -43.8514 197.123C-27.134 164.452 -3.80598 136.451 21.7497 116.355ZM85.5218 330.942C110.948 310.948 134.248 283.179 150.863 250.378C174.684 203.515 180.162 155.75 165.439 122.61C157.219 103.881 142.866 91.2343 124.094 86.0511C70.6069 71.4275 -4.34958 121.343 -43.0542 197.335C-66.8752 244.199 -72.3528 291.964 -57.6298 325.104C-49.4101 343.833 -35.0568 356.48 -16.2851 361.663C14.1852 370.243 51.6637 357.567 85.5218 330.942Z" fill="#00A79D"/>
<path d="M10.2537 118.259C50.598 86.534 97.4101 73.4462 133.472 88.3363C153.737 96.7537 168.37 112.959 175.915 135.368C188.238 171.865 179.841 220.456 153.693 265.161C109.844 339.951 29.5639 382.295 -25.4284 359.617C-45.6936 351.2 -60.3264 334.994 -67.8709 312.585C-80.1945 276.089 -71.7977 227.498 -45.6493 182.793C-30.5883 157.093 -11.1508 135.091 10.2537 118.259ZM97.0483 329.018C118.323 312.289 137.733 290.518 152.692 264.688C178.813 220.215 187.284 171.985 174.932 135.721C167.462 113.673 152.931 97.5974 133 89.3375C78.5731 66.8449 -1.34532 109.115 -44.9075 183.469C-71.0282 227.943 -79.2676 276.2 -67.046 312.566C-59.5758 334.614 -45.0449 350.69 -25.1135 358.95C10.5128 373.553 56.9634 360.539 97.0483 329.018Z" fill="#00A79D"/>
<path d="M-1.53989 118.714C45.0312 82.0921 101.706 70.0663 142.702 92.833C164.174 104.92 178.799 125.121 185.075 151.257C194.387 190.331 183.08 238.691 154.817 280.44C105.859 352.739 20.988 386.308 -34.6564 355.325C-56.2578 343.34 -70.8829 323.139 -77.1591 297.004C-86.4713 257.929 -75.1639 209.569 -47.003 167.69C-34.0064 148.443 -18.4041 131.975 -1.53989 118.714ZM108.973 328.666C125.838 315.405 141.31 299.039 154.177 279.894C182.181 238.349 193.562 190.35 184.12 151.378C178.048 125.501 163.395 105.532 142.026 93.5748C101.493 70.8635 45.2818 82.9447 -1.02984 119.362C-17.894 132.623 -33.3666 148.989 -46.2335 168.135C-74.237 209.68 -85.6187 257.679 -76.1767 296.651C-70.1045 322.527 -55.4517 342.496 -34.0821 354.454C6.34864 377.035 62.6619 365.084 108.973 328.666Z" fill="#00A79D"/>
<path d="M-13.3471 117.079C39.1913 75.7655 106.359 66.405 151.734 98.7447C174.691 115.123 189.123 139.884 193.51 170.025C199.579 211.649 185.611 257.693 155.465 296.514C101.482 365.626 12.0282 389.362 -43.9534 349.408C-66.9098 333.029 -81.3421 308.269 -85.729 278.128C-91.7981 236.504 -77.8296 190.459 -47.684 151.638C-37.2895 138.426 -25.6709 126.77 -13.3471 117.079ZM120.516 330.295C132.84 320.604 144.431 309.18 154.723 295.838C184.943 257.378 198.652 211.538 192.787 170.173C188.502 140.162 174.042 115.633 151.42 99.4122C106.48 67.3596 39.7756 76.7755 -12.5033 117.885C-24.8271 127.576 -36.418 139 -46.7104 152.342C-76.8284 190.932 -90.6672 236.874 -84.6723 278.137C-80.3874 308.148 -65.9274 332.677 -43.3048 348.898C1.66212 380.719 68.2371 371.405 120.516 330.295Z" fill="#00A79D"/>
<path d="M-24.4089 113.188C33.8374 67.3859 111.972 62.6277 161.096 105.876C185.121 127.083 199.351 157.46 201.256 191.653C203.683 234.252 186.868 278.545 155.441 313.335C96.415 378.435 2.85036 391.338 -53.0794 342.105C-77.1036 320.898 -91.3342 290.52 -93.2386 256.328C-95.6654 213.729 -78.8507 169.435 -47.4243 134.646C-40.2441 126.69 -32.5815 119.615 -24.4089 113.188ZM131.684 334.116C139.727 327.791 147.39 320.716 154.57 312.76C185.969 278.203 202.524 234.113 200.301 191.774C198.471 157.943 184.213 127.797 160.522 106.747C111.834 63.7864 34.19 68.3683 -23.7968 113.967C-31.8397 120.291 -39.5023 127.366 -46.6826 135.322C-78.0812 169.88 -94.6365 213.969 -92.4137 256.309C-90.4815 290.269 -76.4549 320.388 -52.5328 341.465C-3.84455 384.426 73.6974 379.714 131.684 334.116Z" fill="#00A79D"/>
<path d="M-34.8353 107.104C28.9891 56.915 118.25 59.3636 170.363 114.956C225.592 173.977 218.466 270.905 154.377 331.17C123.282 360.24 83.7102 376.662 42.7787 376.938C1.81954 377.445 -35.4477 361.823 -62.3483 333.221C-89.2488 304.618 -102.305 266.389 -99.3091 225.614C-96.3129 184.839 -77.4845 146.31 -46.4916 117.11C-42.7762 113.558 -38.8567 110.266 -34.8353 107.104ZM142.108 340.397C146.13 337.235 150.049 333.943 153.765 330.391C217.567 270.563 224.508 174.2 169.585 115.568C117.777 60.3648 28.9803 57.9716 -34.3252 107.752C-38.217 110.813 -42.1364 114.105 -45.8518 117.656C-76.817 146.625 -95.386 184.95 -98.3545 225.493C-101.323 266.037 -88.2387 304.034 -61.6719 332.479C-34.9754 360.822 1.95811 376.286 42.7876 375.881C78.4357 375.561 113.31 363.043 142.108 340.397Z" fill="#00A79D"/>
<path d="M-44.6577 98.667C24.4854 44.2958 124.928 56.426 179.197 125.439C233.569 194.582 221.67 295.053 152.527 349.424C83.384 403.795 -17.0589 391.665 -71.328 322.652C-125.699 253.509 -113.801 153.038 -44.6577 98.667ZM151.915 348.646C220.669 294.581 232.614 194.703 178.549 125.949C124.484 57.1955 24.6063 45.2505 -44.1476 99.3156C-112.902 153.381 -124.847 253.258 -70.7814 322.012C-16.7163 390.766 83.1611 402.711 151.915 348.646Z" fill="#00A79D"/>
</svg>
