<svg width="284" height="453" viewBox="0 0 284 453" fill="none" xmlns="http://www.w3.org/2000/svg">
<path d="M-57.8407 220.451C-61.3195 216.027 -63.1492 211.425 -63.1418 207.168C-63.1565 198.902 -56.7516 191.404 -44.6478 185.466L-44.3714 185.249L48.7114 213.18C55.3686 215.105 63.3782 216.19 70.9032 216.089L144.317 214.741C158.873 214.482 174.163 218.567 179.252 224.186C180.586 225.598 181.15 227.168 180.973 228.65C179.607 241.134 163.457 251.596 136.718 257.409C85.0557 268.501 8.20962 259.795 -34.6429 238.006C-45.3611 232.34 -53.0575 226.534 -57.8407 220.451ZM-44.3014 186.76C-55.6351 192.54 -61.5958 199.464 -61.6308 207.099C-61.6843 216.985 -51.9114 227.422 -34.0809 236.446C8.5247 258.205 85.0152 266.743 136.292 255.73C162.37 250.214 178.106 240.077 179.383 228.334C179.501 227.347 179.016 226.161 178.008 225.164C173.245 219.96 158.311 216.042 144.14 216.223L70.8645 217.462C63.2013 217.671 54.9447 216.557 48.1788 214.494L-44.3014 186.76Z" fill="#00A79D"/>
<path d="M-60.9222 217.951C-65.0532 212.697 -67.0413 207.325 -66.6986 202.357C-66.131 193.409 -58.4327 185.566 -44.4623 179.726L-44.1859 179.509L49.2653 212.744C55.8635 215.162 64.1993 216.662 72.1887 216.867L149.061 219.064C164.407 219.526 179.717 224.49 184.392 230.435C185.588 231.956 185.905 233.496 185.59 235.086C182.437 247.857 164.203 257.945 135.606 262.533C80.0617 271.532 0.941867 258.797 -40.9543 234.243C-49.8355 228.921 -56.5737 223.481 -60.9222 217.951ZM-44.1159 181.02C-57.4248 186.563 -64.7085 194.08 -65.1877 202.288C-65.8732 212.224 -57.0086 222.928 -40.2836 232.821C1.36566 257.345 80.1299 269.912 135.289 260.992C163.392 256.345 181.182 246.83 184.138 234.662C184.394 233.566 184.156 232.41 183.178 231.166C178.829 225.636 163.875 220.839 149.022 220.437L72.15 218.24C64.1606 218.034 55.5779 216.505 48.7328 214.057L-44.1159 181.02Z" fill="#00A79D"/>
<path d="M-63.657 215.627C-68.549 209.406 -70.6955 203.264 -69.8498 197.229C-68.5618 187.491 -59.4613 179.439 -43.3775 173.728L-43.1305 173.757L50.2746 212.622C56.952 215.426 65.3671 217.31 73.6826 217.931L153.984 223.92C169.736 225.181 185.204 230.916 189.326 237.295C190.383 238.924 190.671 240.712 190 242.134C185.06 255.192 164.663 264.519 134.071 267.992C74.9205 274.68 -6.19669 257.699 -46.8602 230.162C-54.2894 225.265 -59.8521 220.466 -63.657 215.627ZM-43.3074 175.239C-58.5916 180.545 -67.2775 188.271 -68.6153 197.377C-69.7946 207.253 -62.1148 218.442 -46.4659 228.957C-6.158 256.326 74.4949 273.001 133.507 266.422C163.576 263.137 183.45 253.997 188.193 241.542C188.587 240.337 188.349 239.182 187.618 237.967C183.822 232.002 168.709 226.435 153.451 225.233L73.397 219.274C65.0814 218.653 56.4195 216.739 49.6334 213.797L-43.3074 175.239Z" fill="#00A79D"/>
<path d="M-65.8899 213.359C-71.7603 205.894 -74.1445 198.596 -72.8252 191.741C-70.8168 181.213 -59.929 172.875 -41.8994 167.646L-41.6525 167.676L50.6895 212.299C57.1992 215.458 65.9109 218.004 74.4438 218.901L157.651 228.87C174.193 230.852 189.188 237.407 192.757 244.221C193.785 246.097 193.826 247.855 192.878 249.495C186.042 262.701 163.344 271.377 131.033 273.516C68.1972 277.509 -14.394 256.094 -53.1136 225.91C-58.3501 221.525 -62.6286 217.507 -65.8899 213.359ZM-41.5825 169.187C-59.0888 174.228 -69.4238 182.131 -71.2351 192.057C-73.1846 202.092 -66.5219 213.409 -52.0873 224.655C-13.6146 254.81 68.621 276.057 131.209 272.035C163.136 269.974 185.173 261.595 191.95 248.882C192.591 247.707 192.492 246.443 191.79 244.981C188.408 238.691 173.522 232.274 157.721 230.381L74.5433 220.166C65.9017 219.13 57.0518 216.693 50.4333 213.395L-41.5825 169.187Z" fill="#00A79D"/>
<path d="M-67.3062 211.557C-74.3724 202.571 -76.9648 193.87 -74.8956 185.979C-71.9198 174.689 -59.4916 166.035 -38.9137 161.488L-38.6668 161.517L52.0886 212.086C58.5394 215.739 67.2216 218.532 76.0512 220.091L161.393 234.197C178.094 236.95 192.971 244.492 196.017 251.494C196.907 253.479 196.671 255.454 195.586 257.203C186.607 270.528 161.883 278.335 127.744 279.003C61.5001 280.083 -22.0418 254.046 -58.5411 220.997C-62.0291 217.699 -64.9145 214.598 -67.3062 211.557ZM-38.9524 162.861C-58.5132 167.279 -70.7737 175.578 -73.5523 186.265C-76.2425 196.211 -70.6265 207.903 -57.5148 219.743C-21.2624 252.762 61.8152 278.493 127.812 277.384C161.566 276.794 185.767 269.175 194.44 256.314C195.219 255.03 195.396 253.548 194.694 252.087C191.974 245.5 177.177 238.342 161.108 235.541L75.6569 221.296C66.6891 219.846 57.7895 216.776 51.2005 213.232L-38.9524 162.861Z" fill="#00A79D"/>
<path d="M-68.2846 210.312C-76.8727 199.391 -79.8908 189.011 -76.7952 179.865C-72.8521 167.815 -58.1428 158.933 -35.6487 155.116L-35.4018 155.146L52.6414 211.651C58.9245 215.659 67.6565 219.085 76.5653 221.029L164.093 239.905C180.814 243.536 195.356 251.79 197.849 259.226C198.709 261.458 198.335 263.542 196.756 265.231C185.663 278.428 158.777 285.475 122.977 284.317C53.601 282.267 -30.3684 251.42 -64.2623 215.427C-65.3199 213.798 -66.8713 212.109 -68.2846 210.312ZM-35.5787 156.627C-57.4408 160.395 -71.5973 168.842 -75.4815 180.398C-78.8037 190.394 -74.4516 202.185 -62.7716 214.479C-29.2334 250.304 54.2717 280.845 123.401 282.865C158.707 283.964 185.317 277.134 195.995 264.263C197.159 262.9 197.336 261.419 196.802 259.602C194.497 252.689 180.42 244.741 164.054 241.278L76.6353 222.54C67.4796 220.566 58.6389 217.003 52.1089 212.965L-35.5787 156.627Z" fill="#00A79D"/>
<path d="M-68.3675 209.932C-78.8037 196.66 -82.0502 183.999 -77.8197 173.737C-72.524 160.847 -55.9482 152.064 -30.9059 148.928L-30.659 148.957L53.9017 211.557C59.879 216.03 68.5519 219.949 77.6487 222.416L166.729 246.111C183.718 250.651 197.43 259.557 199.509 267.319C200.093 269.769 199.442 272.07 197.725 273.868C184.272 286.907 155.39 292.839 118.039 289.992C45.8069 284.594 -37.9284 248.641 -68.3675 209.932ZM-30.9446 150.301C-55.2168 153.278 -71.378 161.736 -76.3677 174.161C-80.4306 184.068 -77.2338 196.097 -67.1237 208.954C-36.7934 247.525 46.4776 283.172 118.463 288.54C155.32 291.328 183.926 285.614 197.102 272.791C198.652 271.349 199.105 269.65 198.462 267.695C196.572 260.456 182.83 251.797 166.691 247.484L77.5013 223.651C68.1576 221.154 59.376 217.096 53.1518 212.594L-30.9446 150.301Z" fill="#00A79D"/>
<path d="M-67.6607 210.499C-69.4001 208.287 -71.0013 205.967 -72.4938 203.784C-81.2514 190.087 -83.234 177.327 -78.1245 167.045C-71.2295 153.345 -52.5403 144.69 -25.2555 142.699L-25.0086 142.729L55.0525 211.551C60.7239 216.488 69.3379 220.901 78.5139 223.754L168.625 252.456C185.278 257.707 198.378 267.541 199.933 275.492C200.488 278.188 199.561 280.706 197.212 282.554C181.537 295.327 150.412 300.113 111.787 295.361C41.0338 287.01 -36.8956 249.623 -67.6607 210.499ZM-25.2942 144.072C-51.8383 146.151 -70.1129 154.481 -76.5638 167.608C-81.5056 177.534 -79.5728 189.662 -71.1413 202.944C-44.6214 244.064 37.6454 284.976 112.319 294.047C150.589 298.632 181.299 294.172 196.589 281.477C198.524 279.956 199.253 278.04 198.778 275.729C197.411 268.302 184.39 258.853 168.339 253.799L78.2283 225.097C68.9436 222.106 60.1122 217.417 54.3026 212.588L-25.2942 144.072Z" fill="#00A79D"/>
<path d="M-66.242 212.07C-70.1556 207.093 -73.4372 202.067 -75.9781 197.129C-83.0572 183.007 -83.667 170.287 -77.5404 159.876C-68.9374 145.504 -48.026 137.115 -18.4988 136.269L-18.2519 136.299L56.322 211.226C61.5788 216.489 69.9956 221.504 79.2214 224.989L169.562 259.104C185.989 265.204 198.152 275.552 199.154 283.937C199.541 286.989 198.338 289.725 195.603 291.651C177.459 304.129 144.26 307.414 104.606 300.785C36.1031 289.323 -35.2594 251.471 -66.242 212.07ZM-18.567 137.889C-47.4622 138.685 -67.8503 146.886 -76.1474 160.794C-82.0769 170.602 -81.4375 183.076 -74.5464 196.675C-52.3603 240.531 28.2703 286.756 105 299.58C144.407 306.18 177.222 302.973 194.98 290.575C197.3 288.974 198.306 286.841 197.999 284.174C197.046 276.421 184.962 266.459 169.277 260.447L78.9358 226.332C69.4631 222.818 60.9376 217.664 55.4633 212.125L-18.567 137.889Z" fill="#00A79D"/>
<path d="M-64.1218 215.32C-70.7532 206.887 -75.765 198.523 -78.772 190.148C-84.1725 175.601 -83.1332 162.702 -76.1572 152.518C-65.5992 137.504 -42.2482 129.658 -10.6464 130.313L-10.3994 130.343L57.8084 211.394C62.6211 217.23 70.7321 222.71 79.8988 226.689L169.976 266.156C185.791 273.185 197.154 283.938 197.742 292.649C197.961 296.057 196.235 298.98 193.006 300.848C172.285 312.891 137.258 314.705 96.605 305.953C31.2804 291.991 -33.4654 254.306 -64.1218 215.32ZM-10.8232 131.795C-41.9313 131.198 -64.5121 138.887 -74.7642 153.437C-81.6813 163.127 -82.5529 175.67 -77.3403 189.693C-59.9522 235.981 18.1632 287.54 96.6437 304.58C137.049 313.303 171.691 311.568 192.028 299.603C194.98 297.953 196.262 295.603 196.122 292.58C195.693 284.64 184.439 274.025 169.335 267.332L79.3663 228.002C70.0909 223.886 61.7625 218.129 56.841 212.155L-10.8232 131.795Z" fill="#00A79D"/>
<path d="M-61.0763 220.314C-70.8603 207.872 -77.7311 195.152 -80.7897 183.015C-84.4029 168.181 -81.9615 155.075 -73.504 145.068C-60.5267 129.718 -34.9831 122.384 -1.55341 124.511L-1.30651 124.54L58.9451 211.401C63.205 217.672 70.8719 223.724 79.8415 228.305L169.132 273.314C184.118 280.995 194.652 292.4 194.716 301.298C194.738 305.308 192.627 308.311 188.628 310.337C165.467 321.837 128.503 322.042 87.1285 310.949C26.4343 294.912 -31.1808 258.332 -61.0763 220.314ZM-1.83901 125.854C-34.7749 123.787 -59.657 130.824 -72.2197 145.848C-80.2626 155.529 -82.7833 168.25 -79.2493 182.698C-67.2913 231.466 7.43009 288.378 87.5228 309.744C128.542 320.669 165.121 320.544 188.005 309.26C191.451 307.669 193.148 304.993 193.314 301.506C193.299 293.24 183.23 282.141 168.57 274.874L79.6647 229.787C70.3394 225.038 62.4551 218.709 58.1951 212.438L-1.83901 125.854Z" fill="#00A79D"/>
<path d="M-57.5214 227.131C-71.219 209.712 -79.8605 191.896 -81.8947 175.374C-83.6911 160.006 -79.3536 146.751 -69.6616 136.893C-54.1563 121.344 -26.3409 114.909 8.74898 118.863L9.13409 118.783L60.5505 211.473C64.149 218.04 71.3718 224.666 80.253 229.987L167.216 280.853C181.62 289.216 190.969 301.105 190.263 310.162C189.979 314.636 187.453 317.965 182.714 319.901C156.896 330.583 118.272 328.961 76.5305 315.695C21.5336 298.087 -28.9305 263.49 -57.5214 227.131ZM8.35467 120.068C-26.1327 116.312 -53.3161 122.697 -68.5156 137.781C-78.0398 147.284 -82.1009 160.322 -80.3543 175.057C-74.3994 225.86 -3.84217 288.285 76.9543 314.244C118.449 327.479 156.826 329.072 182.259 318.469C186.337 316.829 188.695 313.856 188.92 309.876C189.567 301.313 180.514 290.085 166.605 281.782L79.6412 230.916C70.5132 225.565 63.2111 218.554 59.5039 211.849L8.35467 120.068Z" fill="#00A79D"/>
<path d="M-53.5408 235.863C-71.5868 212.914 -82.2367 188.847 -81.9233 167.346C-81.7943 151.584 -75.6695 138.042 -64.111 128.282C-45.8603 112.812 -15.8024 107.522 20.4538 113.243L20.9476 113.302L62.4325 211.564C65.3695 218.427 72.0101 225.735 80.5854 231.52L164.728 288.184C178.411 297.337 186.249 309.296 184.99 318.787C184.401 323.725 181.213 327.351 175.733 329.199C147.396 338.952 107.112 335.504 65.1718 319.71C16.248 301.577 -26.7979 269.872 -53.5408 235.863ZM19.7831 114.665C-15.8706 109.142 -45.2965 114.382 -63.2413 129.388C-74.3852 138.822 -80.451 151.87 -80.5506 167.386C-81.0926 220.165 -15.6873 287.983 65.428 318.614C107.013 334.24 146.912 337.767 175.002 327.984C179.958 326.324 182.731 323.025 183.371 318.718C184.541 309.968 176.673 298.256 163.702 289.439L79.5591 232.775C70.8751 226.851 64.0171 219.267 60.8626 212.127L19.7831 114.665Z" fill="#00A79D"/>
<path d="M-49.6823 246.476C-72.6203 217.306 -84.9138 186.029 -81.0682 159.066C-78.7373 142.691 -70.4696 129.03 -56.9359 119.506C-35.7518 104.638 -3.83662 100.573 33.0626 108.249L33.5564 108.308L63.7667 211.856C65.904 219.125 71.8536 226.975 79.9848 233.334L160.289 295.924C172.787 305.561 179.549 318.142 177.659 327.683C176.625 333.195 172.638 337.225 166.417 338.984C135.453 347.672 93.7851 342.179 52.1394 323.916C10.632 305.544 -25.5485 277.167 -49.6823 246.476ZM32.3919 109.671C-4.043 102.301 -35.4349 106.179 -56.0957 120.859C-69.2148 130.057 -77.3148 143.362 -79.6163 159.49C-87.2577 214.049 -27.9919 287.142 52.7807 322.741C94.1794 340.974 135.6 346.437 166.18 337.829C171.877 336.257 175.42 332.8 176.395 327.782C178.226 318.735 171.623 306.924 159.48 297.455L79.1759 234.865C70.6891 228.338 64.6602 220.103 62.4142 212.696L32.3919 109.671Z" fill="#00A79D"/>
<path d="M-46.2397 258.537C-74.2871 222.869 -87.6916 183.07 -78.8323 150.822C-66.6619 106.573 -15.9525 87.729 47.3489 103.953L47.8427 104.012L65.5732 212.452C66.8021 219.987 71.9226 228.489 79.6097 235.421L155.335 303.849C166.757 314.109 172.147 326.651 169.595 336.488C167.979 342.681 163.221 346.869 156.151 348.402C122.559 356.023 79.7842 348.269 38.5715 327.428C4.1156 309.776 -25.2585 285.219 -46.2397 258.537ZM46.4608 105.099C-15.7738 89.3783 -65.5453 107.709 -77.4891 151.108C-84.8208 177.904 -76.7432 210.929 -54.662 244.129C-32.5808 277.329 0.765814 306.369 39.1335 325.867C80.0993 346.679 122.519 354.265 155.726 346.723C162.411 345.27 166.615 341.516 168.064 335.679C170.527 326.582 164.97 314.396 154.121 304.581L78.3955 236.152C70.4909 228.944 65.2617 220.303 63.9536 212.383L46.4608 105.099Z" fill="#00A79D"/>
<path d="M-44.149 271.434C-77.5233 228.992 -91.1802 179.771 -75.6582 142.06C-57.0001 96.9605 -1.49994 79.9422 62.3763 99.7415L62.8701 99.8007L66.8071 212.598C66.9895 220.509 71.3102 229.417 78.4151 237.03L148.407 311.533C158.397 322.247 162.631 335.027 159.338 344.775C157.14 351.65 151.336 356.214 143.417 357.519C107.365 363.719 63.4823 353.703 23.226 330.097C-3.55563 314.24 -26.5379 293.83 -44.149 271.434ZM61.5969 101.026C-1.45941 81.7002 -56.0511 98.4516 -74.2357 142.731C-85.5271 170.18 -81.4976 204.598 -62.8123 240.021C-44.127 275.444 -13.218 307.072 24.361 328.98C64.2617 352.419 107.789 362.267 143.564 356.284C151.098 355.058 156.241 350.791 158.489 344.548C161.614 335.155 157.43 323.008 147.765 312.709L77.7739 238.206C70.4516 230.316 66.0221 221.27 65.7605 212.974L61.5969 101.026Z" fill="#00A79D"/>
<path d="M-43.5395 285.047C-55.6064 269.701 -65.383 253.002 -72.1875 235.532C-87.0918 197.807 -86.6292 161.423 -70.993 133.242C-45.6592 87.8156 14.7108 73.0087 79.0237 96.4917L79.6262 96.6891L68.8115 213.48C68.0855 221.657 71.3597 230.941 77.6355 239.206L140.935 319.419C149.632 330.479 152.464 343.466 148.43 353.126C145.403 360.652 138.69 365.483 129.675 366.532C91.0542 371.172 46.5876 358.707 7.64315 332.502C-12.1847 319.233 -29.4071 303.019 -43.5395 285.047ZM77.8887 97.608C14.6426 74.6284 -44.7103 89.3067 -69.8469 134.131C-85.3154 161.956 -85.7191 197.847 -70.894 235.186C-56.0689 272.526 -27.9828 306.821 8.28437 331.327C46.9819 357.502 91.0929 369.799 129.328 365.238C137.85 364.13 144.01 359.734 146.978 352.701C150.844 343.397 148.062 331.042 139.691 320.397L76.3917 240.184C69.7604 231.751 66.4069 222.082 67.3006 213.549L77.8887 97.608Z" fill="#00A79D"/>
<path d="M-45.5785 298.064C-61.7765 277.465 -73.5319 254.268 -80.0342 230.072C-90.5846 190.489 -85.2244 152.938 -65.0849 124.796C-32.3054 78.8843 32.6581 66.5061 96.7757 93.7225L97.3782 93.9199L70.3895 214.032C68.5082 222.447 70.5976 232.215 76.1824 241.023L131.664 326.937C139.067 338.342 140.526 351.29 135.584 361.217C131.481 369.366 123.613 374.434 113.639 375.117C72.5887 378.088 27.7848 363.204 -9.43305 334.076C-23.1859 323.412 -35.251 311.197 -45.5785 298.064ZM95.6407 94.8388C32.343 68.0963 -31.6034 80.3459 -63.9094 125.438C-83.7724 153.363 -89.0737 190.42 -78.4938 229.756C-68.0522 269.2 -43.1151 305.747 -8.51545 332.683C28.485 361.535 73.042 376.39 113.599 373.359C123.079 372.617 130.394 367.983 134.33 360.19C139.104 350.619 137.556 338.412 130.479 327.421L74.9681 241.754C69.1659 232.669 66.9973 222.517 68.9376 213.608L95.6407 94.8388Z" fill="#00A79D"/>
<path d="M-49.9762 310.694C-70.0877 285.118 -83.0519 255.265 -87.356 224.194C-93.1672 182.675 -82.5538 144.126 -57.6642 116.052C-17.2509 70.1778 52.2766 60.4752 115.676 91.6126L116.278 91.81L71.9397 214.602C68.9031 223.255 69.8078 233.506 74.4547 242.828L121.021 334.186C126.993 346.046 126.971 358.816 121.15 368.763C115.971 377.534 106.701 382.81 95.907 383.02C52.7024 384.105 7.72906 366.445 -27.298 334.699C-35.8051 327.294 -43.2362 319.266 -49.9762 310.694ZM114.541 92.7289C51.9616 62.0653 -16.6871 71.7481 -56.5182 116.941C-81.1314 144.797 -91.5771 182.991 -85.9538 223.987C-80.2218 265.121 -59.2038 304.079 -26.5481 333.662C8.26157 365.131 52.7411 382.732 95.6988 381.617C105.999 381.348 114.854 376.399 119.866 367.983C125.519 358.392 125.482 346.115 119.698 334.779L73.1317 243.421C68.2674 233.822 67.2835 223.186 70.4878 214.178L114.541 92.7289Z" fill="#00A79D"/>
<path d="M-56.8892 322.623C-80.6969 292.346 -93.9614 255.569 -94.3094 217.585C-94.6703 174.465 -78.5864 135.193 -48.6997 107.217C-0.464737 61.9043 73.7061 55.2624 135.725 90.6174L136.298 91.0617L135.963 91.7728L73.4344 215.892C68.9956 224.752 68.6067 235.35 72.2071 245.047L108.625 341.7C113.194 353.768 111.77 366.746 104.715 376.545C98.2123 385.909 87.5696 391.146 75.709 390.852C30.2418 389.913 -14.4072 369.537 -46.7202 334.986C-50.2284 330.809 -53.6279 326.77 -56.8892 322.623ZM134.372 91.4571C73.1441 56.823 -0.0391148 63.5832 -47.8301 108.323C-77.3021 135.973 -93.3271 174.751 -92.9367 217.624C-92.5463 260.497 -75.6649 301.59 -45.4469 333.761C-13.3514 368.036 30.942 388.244 75.9154 389.124C87.2822 389.358 97.2634 384.418 103.598 375.41C110.239 365.937 111.604 353.453 107.223 341.908L70.8049 245.255C67.0166 235.034 67.4644 223.943 72.0414 214.974L134.372 91.4571Z" fill="#00A79D"/>
<path d="M-66.3479 333.636C-93.8518 298.66 -106.044 254.999 -100.708 210.307C-95.3712 165.615 -73.2436 126.065 -38.2807 98.5725C18.2403 54.1273 96.778 50.7635 156.923 90.2768L157.496 90.7211L74.9907 216.454C69.1791 225.275 67.3586 236.327 69.8829 246.647L94.9468 348.201C98.0847 360.724 95.0702 373.386 86.7509 383.284C78.5699 393.073 66.6926 398.162 54.1503 397.285C6.94367 394.134 -36.996 370.963 -66.3479 333.636ZM155.571 91.1166C95.831 52.4032 18.5278 55.9149 -37.4405 99.9254C-71.9888 127.092 -93.9782 166.533 -99.2556 210.731C-104.533 254.929 -92.4496 298.452 -65.2718 333.014C-36.246 369.926 7.33798 392.929 54.2977 396.051C66.3462 396.868 77.9471 391.997 85.7135 382.534C93.7269 373.1 96.4651 360.655 93.5152 348.656L68.4512 247.102C65.9859 236.288 67.8359 224.989 73.9533 215.704L155.571 91.1166Z" fill="#00A79D"/>
</svg>
