
<svg width="521" height="1018" viewBox="0 0 521 1018" fill="none" xmlns="http://www.w3.org/2000/svg">
<g clip-path="url(#clip0_1_16794)">
<path d="M808.68 662.406C827.666 828.438 675.072 952.962 498.569 960.7C317.846 965.625 173.691 829.845 172.284 651.149C175.097 471.751 337.536 182.602 597.72 266.322C698.277 307.829 774.926 383.107 779.145 480.193C779.849 538.586 798.132 599.792 808.68 662.406Z" stroke="white" stroke-width="0.1248" stroke-miterlimit="10"/>
<path d="M824.15 651.852C841.027 818.587 689.136 946.629 513.336 948.036C336.13 948.036 201.115 803.813 193.38 639.892C189.864 474.564 341.755 201.596 586.469 274.763C682.807 305.014 762.972 369.035 779.145 461.197C788.99 516.775 813.602 582.203 824.15 651.852Z" stroke="white" stroke-width="0.1248" stroke-miterlimit="10"/>
<path d="M845.246 633.558C860.716 800.293 708.825 932.556 533.728 927.631C360.741 922.706 234.166 770.745 220.102 620.894C211.663 469.636 351.6 212.85 581.546 275.464C673.665 295.162 757.346 347.223 785.474 434.46C803.757 487.928 835.401 556.873 845.246 633.558Z" stroke="white" stroke-width="0.1248" stroke-miterlimit="10"/>
<path d="M869.858 610.344C883.922 777.783 732.031 913.564 556.934 902.307C388.166 891.754 270.029 732.054 249.636 596.274C236.275 459.087 364.961 218.481 579.437 270.542C666.633 279.688 753.83 319.789 794.616 402.101C822.04 453.458 860.716 525.921 869.858 610.344Z" stroke="white" stroke-width="0.1248" stroke-miterlimit="10"/>
<path d="M896.579 583.614C909.237 751.053 757.346 891.054 582.953 873.466C418.404 857.988 308.705 690.55 281.983 568.84C262.997 446.427 380.431 221.299 579.437 263.51C662.414 261.4 753.127 290.244 805.867 367.632C842.433 416.175 888.141 491.452 896.579 583.614Z" stroke="white" stroke-width="0.1248" stroke-miterlimit="10"/>
<path d="M923.3 556.172C934.552 724.314 782.66 868.537 608.267 843.914C447.938 823.511 346.677 647.63 314.33 540.695C290.421 432.352 395.901 223.405 579.436 255.064C658.194 242.4 752.423 259.285 817.117 331.748C862.122 378.18 915.565 456.975 923.3 556.172Z" stroke="white" stroke-width="0.1248" stroke-miterlimit="10"/>
<path d="M947.912 535.765C957.054 704.611 805.866 852.351 632.176 821.396C476.066 795.366 383.243 611.746 344.567 518.881C315.033 425.312 409.262 231.843 577.326 252.948C651.865 229.732 749.61 233.953 825.556 302.195C881.109 346.517 940.88 428.829 947.912 535.765Z" stroke="white" stroke-width="0.1248" stroke-miterlimit="10"/>
<path d="M969.009 520.291C976.744 689.137 825.557 841.098 652.57 803.812C500.678 772.857 416.295 581.498 371.29 502.703C336.833 423.205 419.107 245.917 572.405 256.47C642.725 222.7 743.986 214.962 831.885 277.575C895.173 321.194 962.68 407.024 969.009 520.291Z" stroke="white" stroke-width="0.1248" stroke-miterlimit="10"/>
<path d="M984.48 513.256C990.809 682.806 839.621 838.285 666.634 794.666C518.962 758.786 443.016 558.985 391.683 494.965C352.303 429.537 423.327 268.43 561.154 268.43C627.255 223.404 732.031 204.409 831.886 262.098C904.315 302.903 978.151 391.547 984.48 513.256Z" stroke="white" stroke-width="0.1248" stroke-miterlimit="10"/>
<path d="M991.512 514.668C996.434 684.217 845.247 843.917 672.963 793.967C528.807 752.459 462.003 544.92 404.34 495.673C359.336 444.316 419.108 299.389 541.464 289.54C603.346 233.962 711.639 203.007 823.447 255.771C905.018 293.761 986.59 385.923 991.512 514.668Z" stroke="white" stroke-width="0.1248" stroke-miterlimit="10"/>
<path d="M989.402 530.843C992.215 701.096 841.73 865.017 670.149 808.031C530.213 761.599 471.847 546.32 407.856 511.144C357.929 473.857 405.746 344.409 512.633 324.71C570.295 258.579 682.104 215.664 805.867 263.504C896.579 299.383 985.183 395.063 989.402 530.843Z" stroke="white" stroke-width="0.1248" stroke-miterlimit="10"/>
<path d="M996.434 547.733C997.84 718.69 847.355 886.129 675.775 822.811C540.76 770.751 490.13 547.03 419.81 526.627C364.96 504.115 401.527 390.847 492.943 359.892C546.386 282.504 661.711 228.333 797.428 271.248C897.282 305.017 992.214 404.214 996.434 547.733Z" stroke="white" stroke-width="0.1248" stroke-miterlimit="10"/>
<path d="M1022.45 534.363C1022.45 705.32 871.967 876.98 701.09 807.331C569.591 750.345 528.103 518.886 451.454 512.554C390.979 504.112 416.294 407.025 492.943 365.517C542.167 277.577 661.007 211.445 808.679 249.436C916.269 281.094 1018.94 383.809 1022.45 534.363Z" stroke="white" stroke-width="0.1248" stroke-miterlimit="10"/>
<path d="M1032.3 516.775C1030.89 688.435 880.405 863.613 709.528 787.632C582.249 725.722 549.198 486.524 466.221 494.262C400.823 500.594 414.184 418.985 475.362 367.628C520.367 269.134 642.724 190.34 802.35 224.109C919.784 252.25 1028.78 359.186 1032.3 516.775Z" stroke="white" stroke-width="0.1248" stroke-miterlimit="10"/>
<path d="M1022.45 507.629C1019.64 679.289 869.155 858.687 698.98 776.375C575.92 708.837 550.605 461.9 462.002 483.709C390.979 504.111 393.792 438.683 439.5 376.773C480.285 267.727 606.158 176.972 777.739 205.817C903.611 232.55 1019.64 342.3 1022.45 507.629Z" stroke="white" stroke-width="0.1248" stroke-miterlimit="10"/>
<path d="M1004.87 499.183C999.95 671.547 850.168 854.463 680.697 765.819C561.153 692.653 544.979 437.977 449.344 473.856C373.399 509.033 364.257 459.082 394.495 386.619C431.061 266.317 560.45 164.306 743.985 187.522C879.702 212.849 1002.76 326.116 1004.87 499.183Z" stroke="white" stroke-width="0.1248" stroke-miterlimit="10"/>
<path d="M991.512 483.712C985.183 656.779 835.401 843.917 665.93 748.238C551.309 670.85 542.87 407.732 441.61 458.385C360.742 507.632 339.646 473.863 355.116 390.847C387.463 259.992 520.368 146.021 715.857 164.312C860.716 186.825 990.808 303.61 991.512 483.712Z" stroke="white" stroke-width="0.1248" stroke-miterlimit="10"/>
<path d="M694.761 132.647C843.136 153.05 984.479 276.87 978.15 454.862C974.634 487.224 964.086 516.772 957.054 543.506C941.584 593.456 903.611 639.889 862.122 679.286C803.053 734.161 727.811 760.895 648.35 719.387C533.728 649.738 518.961 397.876 419.81 437.977C342.458 480.892 322.065 445.716 336.129 365.514C366.367 231.141 499.974 115.763 694.761 132.647Z" stroke="white" stroke-width="0.1248" stroke-miterlimit="10"/>
<path d="M679.994 93.9524C832.588 112.244 984.479 242.396 970.415 419.684C964.79 452.75 950.022 478.78 945.803 501.997C932.442 545.615 889.547 587.123 845.949 629.335C786.88 686.32 713.747 720.089 637.099 682.802C521.774 622.299 500.678 380.99 405.043 410.538C331.207 447.825 311.517 411.242 324.878 332.447C351.6 195.963 485.911 79.1784 679.994 93.9524Z" stroke="white" stroke-width="0.1248" stroke-miterlimit="10"/>
<path d="M668.039 52.4476C824.149 68.6286 987.291 205.816 965.492 380.994C957.054 414.763 938.771 437.979 937.364 456.974C926.816 494.965 877.592 530.141 832.588 575.87C772.816 634.966 702.496 676.474 627.956 643.408C512.632 591.347 484.504 361.295 391.681 380.29C321.362 411.245 302.375 373.958 314.33 297.274C339.645 157.976 474.659 39.7841 668.039 52.4476Z" stroke="white" stroke-width="0.1248" stroke-miterlimit="10"/>
<path d="M654.678 13.051C815.008 27.1215 989.401 170.64 959.164 345.115C948.616 378.884 925.41 399.989 926.816 415.467C918.378 447.126 863.529 477.377 817.117 525.92C757.345 587.831 689.135 635.67 616.706 607.529C501.381 562.504 466.924 344.411 376.914 352.853C310.111 377.477 291.827 338.783 303.079 264.209C326.987 121.394 462.705 2.49812 654.678 13.051Z" stroke="white" stroke-width="0.1248" stroke-miterlimit="10"/>
<path d="M638.505 -20.7217C802.351 -8.76179 987.996 141.792 950.726 314.156C938.069 348.629 910.644 366.92 914.863 378.177C909.237 404.207 848.762 428.83 800.241 480.891C740.469 544.912 674.369 600.49 604.049 576.571C487.318 539.987 446.532 332.448 359.335 330.337C296.751 349.332 278.467 309.231 288.312 236.768C310.815 91.1387 447.235 -29.164 638.505 -20.7217Z" stroke="white" stroke-width="0.1248" stroke-miterlimit="10"/>
<path d="M614.596 -44.6394C782.661 -34.0866 978.853 122.096 933.849 293.052C918.378 328.229 886.734 343.706 893.766 350.741C890.25 370.44 824.15 390.139 774.222 445.014C713.747 511.145 650.459 573.759 582.249 554.06C466.221 527.326 418.403 331.043 334.019 319.083C274.951 331.746 256.668 290.942 266.512 219.886C286.905 70.7386 424.029 -50.2676 614.596 -44.6394Z" stroke="white" stroke-width="0.1248" stroke-miterlimit="10"/>
<path d="M571.701 -55.8946C743.282 -47.4523 950.726 115.765 897.986 285.315C880.406 321.195 844.543 333.858 854.387 336.672C853.684 350.039 781.958 364.813 729.921 422.502C669.446 491.448 608.267 560.393 542.167 545.619C426.842 527.327 371.992 341.597 290.421 319.084C234.869 326.119 217.289 283.204 225.727 214.259C244.01 63.001 382.54 -60.1157 571.701 -55.8946Z" stroke="white" stroke-width="0.1248" stroke-miterlimit="10"/>
<path d="M525.29 -55.8944C701.09 -49.5627 919.785 120.69 859.31 288.129C838.917 324.712 799.538 334.562 812.196 333.858C813.602 341.597 736.25 350.039 682.807 411.949C621.629 483.005 562.56 559.69 499.272 549.137C383.244 538.584 322.066 364.813 243.307 331.044C191.271 331.748 174.394 288.129 182.129 221.294C198.303 66.5189 336.833 -57.3014 525.29 -55.8944Z" stroke="white" stroke-width="0.1248" stroke-miterlimit="10"/>
<path d="M484.505 -43.9375C663.821 -39.7164 893.767 136.868 825.557 303.604C803.054 340.89 758.753 347.222 774.223 343.001C778.442 344.408 694.762 347.926 639.912 412.65C579.437 485.113 522.478 568.832 461.3 563.204C344.568 561.094 277.061 397.876 201.116 354.257C152.595 348.629 136.421 304.307 142.75 238.879C157.517 81.2899 297.454 -43.9375 484.505 -43.9375Z" stroke="white" stroke-width="0.1248" stroke-miterlimit="10"/>
<path d="M449.344 -24.2344C632.879 -22.1238 873.373 161.496 797.428 326.121C772.816 364.111 724.295 367.629 742.578 359.187C748.907 354.965 660.304 352.855 603.345 420.393C542.166 496.374 487.317 587.129 428.248 585.721C312.22 592.053 238.384 440.092 165.251 385.92C120.95 374.664 104.776 328.935 110.402 265.618C122.356 104.511 262.996 -22.1238 449.344 -24.2344Z" stroke="white" stroke-width="0.1248" stroke-miterlimit="10"/>
<path d="M419.107 2.5C606.862 2.5 858.607 192.452 774.926 356.373C747.502 394.363 694.762 395.77 716.561 383.107C725.702 372.554 630.77 365.519 573.108 435.871C511.226 513.962 459.19 611.752 402.231 614.566C285.499 628.637 204.632 488.635 134.312 423.208C93.526 405.62 78.0556 358.483 82.2748 297.277C92.1196 134.059 233.463 6.72115 419.107 2.5Z" stroke="white" stroke-width="0.1248" stroke-miterlimit="10"/>
<path d="M393.088 32.7512C584.358 30.6406 847.355 227.627 755.939 389.438C726.404 428.132 669.445 426.725 693.354 410.544C704.605 394.363 604.048 380.996 544.979 455.569C483.097 535.771 433.17 641.3 379.024 648.335C261.59 670.848 173.69 541.399 106.886 466.122C69.6162 442.202 54.1458 393.659 58.365 334.563C66.1002 167.828 208.146 39.0829 393.088 32.7512Z" stroke="white" stroke-width="0.1248" stroke-miterlimit="10"/>
<path d="M371.289 65.1115C566.779 60.8904 840.323 264.209 741.172 425.316C709.528 464.713 648.35 460.492 675.072 440.09C689.136 417.577 582.952 399.286 521.774 476.673C459.893 559.689 412.075 671.55 360.038 683.51C242.604 714.465 149.078 596.273 84.3841 510.443C50.6305 480.895 36.5665 431.648 39.3793 373.959C44.3017 203.706 187.051 73.5538 371.289 65.1115Z" stroke="white" stroke-width="0.1248" stroke-miterlimit="10"/>
<path d="M353.006 96.7724C552.012 90.4407 836.807 300.795 729.921 459.791C695.464 499.892 630.067 492.857 660.304 468.233C677.181 439.389 564.669 416.173 502.084 496.374C439.5 581.501 393.792 700.397 344.568 717.281C227.133 756.678 126.576 649.743 64.6942 552.656C34.4567 517.48 20.3927 466.826 22.5023 411.951C26.0183 238.884 170.174 107.325 353.006 96.7724Z" stroke="white" stroke-width="0.1248" stroke-miterlimit="10"/>
<path d="M337.535 126.317C540.76 117.874 836.807 335.264 722.185 492.149C685.619 532.954 616.002 523.105 648.349 494.26C667.336 459.787 549.198 430.943 485.207 514.662C422.622 601.899 379.024 728.534 331.91 749.639C214.475 797.479 106.886 701.8 48.5202 594.161C22.5019 552.653 8.43787 500.592 9.84427 447.124C11.2507 271.946 156.11 138.98 337.535 126.317Z" stroke="white" stroke-width="0.1248" stroke-miterlimit="10"/>
<path d="M717.967 520.289C679.291 561.797 604.752 548.43 640.615 516.771C662.414 475.967 538.651 442.197 472.55 528.731C409.262 618.782 368.477 751.748 323.472 777.075C158.22 855.87 0 656.772 0 478.077C0 299.382 144.859 165.712 326.285 150.938C533.025 140.385 839.62 364.106 717.967 520.289Z" stroke="white" stroke-width="0.1248" stroke-miterlimit="10"/>
</g>
<defs>
<clipPath id="clip0_1_16794">
<rect width="521" height="1018" fill="white"/>
</clipPath>
</defs>
</svg>
