<svg width="521" height="1018" viewBox="0 0 521 1018" fill="none" xmlns="http://www.w3.org/2000/svg">
<g clip-path="url(#clip0_1_10789)">
<path d="M808.679 662.406C827.666 828.438 675.072 952.962 498.569 960.7C317.846 965.625 173.69 829.845 172.284 651.149C175.097 471.751 337.536 182.602 597.72 266.322C698.277 307.829 774.926 383.107 779.145 480.193C779.848 538.586 798.131 599.792 808.679 662.406Z" stroke="#693193" stroke-width="0.1248" stroke-miterlimit="10"/>
<path d="M824.15 651.852C841.027 818.587 689.136 946.629 513.336 948.036C336.13 948.036 201.115 803.813 193.38 639.892C189.864 474.564 341.755 201.596 586.469 274.763C682.807 305.014 762.972 369.035 779.145 461.197C788.99 516.775 813.602 582.203 824.15 651.852Z" stroke="#693193" stroke-width="0.1248" stroke-miterlimit="10"/>
<path d="M845.246 633.558C860.716 800.293 708.825 932.556 533.728 927.631C360.741 922.706 234.166 770.745 220.102 620.894C211.663 469.636 351.6 212.85 581.546 275.464C673.665 295.162 757.346 347.223 785.474 434.46C803.757 487.928 835.401 556.873 845.246 633.558Z" stroke="#693193" stroke-width="0.1248" stroke-miterlimit="10"/>
<path d="M869.858 610.344C883.922 777.783 732.031 913.564 556.934 902.307C388.166 891.754 270.029 732.054 249.636 596.274C236.275 459.087 364.961 218.481 579.437 270.542C666.633 279.688 753.83 319.789 794.616 402.101C822.04 453.458 860.716 525.921 869.858 610.344Z" stroke="#693193" stroke-width="0.1248" stroke-miterlimit="10"/>
<path d="M896.579 583.61C909.237 751.049 757.346 891.05 582.953 873.462C418.404 857.984 308.705 690.546 281.983 568.836C262.997 446.423 380.431 221.295 579.437 263.506C662.414 261.396 753.127 290.24 805.867 367.628C842.433 416.171 888.141 491.448 896.579 583.61Z" stroke="#693193" stroke-width="0.1248" stroke-miterlimit="10"/>
<path d="M923.301 556.172C934.552 724.314 782.661 868.537 608.268 843.914C447.938 823.511 346.677 647.63 314.33 540.695C290.421 432.352 395.901 223.405 579.436 255.064C658.195 242.4 752.423 259.285 817.118 331.748C862.123 378.18 915.566 456.975 923.301 556.172Z" stroke="#693193" stroke-width="0.1248" stroke-miterlimit="10"/>
<path d="M947.913 535.769C957.054 704.615 805.867 852.355 632.176 821.4C476.066 795.37 383.244 611.75 344.568 518.884C315.033 425.316 409.262 231.846 577.327 252.952C651.866 229.736 749.611 233.957 825.556 302.199C881.109 346.521 940.881 428.833 947.913 535.769Z" stroke="#693193" stroke-width="0.1248" stroke-miterlimit="10"/>
<path d="M969.009 520.291C976.744 689.137 825.556 841.098 652.569 803.812C500.678 772.857 416.294 581.498 371.289 502.703C336.832 423.205 419.107 245.917 572.404 256.47C642.724 222.7 743.985 214.962 831.885 277.575C895.173 321.194 962.68 407.024 969.009 520.291Z" stroke="#693193" stroke-width="0.1248" stroke-miterlimit="10"/>
<path d="M984.479 513.256C990.808 682.806 839.62 838.285 666.633 794.666C518.961 758.786 443.016 558.985 391.682 494.965C352.303 429.537 423.326 268.43 561.153 268.43C627.254 223.404 732.031 204.409 831.885 262.098C904.315 302.903 978.151 391.547 984.479 513.256Z" stroke="#693193" stroke-width="0.1248" stroke-miterlimit="10"/>
<path d="M991.512 514.664C996.434 684.213 845.246 843.914 672.962 793.963C528.806 752.455 462.002 544.916 404.34 495.669C359.335 444.312 419.107 299.386 541.464 289.536C603.345 233.958 711.638 203.003 823.447 255.767C905.018 293.757 986.589 385.919 991.512 514.664Z" stroke="#693193" stroke-width="0.1248" stroke-miterlimit="10"/>
<path d="M989.402 530.847C992.215 701.1 841.73 865.021 670.149 808.035C530.213 761.603 471.847 546.324 407.856 511.148C357.929 473.861 405.746 344.413 512.633 324.714C570.295 258.583 682.104 215.668 805.867 263.507C896.579 299.387 985.183 395.067 989.402 530.847Z" stroke="#693193" stroke-width="0.1248" stroke-miterlimit="10"/>
<path d="M996.434 547.729C997.84 718.686 847.355 886.125 675.775 822.807C540.76 770.747 490.13 547.026 419.81 526.624C364.96 504.111 401.527 390.843 492.943 359.888C546.386 282.501 661.711 228.329 797.428 271.244C897.282 305.013 992.214 404.21 996.434 547.729Z" stroke="#693193" stroke-width="0.1248" stroke-miterlimit="10"/>
<path d="M1022.45 534.363C1022.45 705.32 871.967 876.98 701.09 807.331C569.591 750.345 528.103 518.886 451.454 512.554C390.979 504.112 416.294 407.025 492.943 365.517C542.167 277.577 661.007 211.445 808.679 249.436C916.269 281.094 1018.94 383.809 1022.45 534.363Z" stroke="#693193" stroke-width="0.1248" stroke-miterlimit="10"/>
<path d="M1032.3 516.775C1030.89 688.435 880.406 863.613 709.528 787.632C582.249 725.722 549.199 486.524 466.221 494.262C400.824 500.594 414.184 418.985 475.363 367.628C520.367 269.134 642.724 190.34 802.35 224.109C919.785 252.25 1028.78 359.186 1032.3 516.775Z" stroke="#693193" stroke-width="0.1248" stroke-miterlimit="10"/>
<path d="M1022.45 507.629C1019.64 679.289 869.155 858.687 698.98 776.375C575.92 708.837 550.605 461.9 462.002 483.709C390.979 504.111 393.792 438.683 439.5 376.773C480.285 267.727 606.158 176.972 777.739 205.817C903.611 232.55 1019.64 342.3 1022.45 507.629Z" stroke="#693193" stroke-width="0.1248" stroke-miterlimit="10"/>
<path d="M1004.87 499.187C999.95 671.551 850.168 854.467 680.697 765.823C561.153 692.656 544.979 437.981 449.344 473.86C373.399 509.037 364.257 459.086 394.495 386.623C431.061 266.321 560.45 164.31 743.985 187.526C879.702 212.853 1002.76 326.12 1004.87 499.187Z" stroke="#693193" stroke-width="0.1248" stroke-miterlimit="10"/>
<path d="M991.511 483.709C985.183 656.776 835.401 843.913 665.93 748.234C551.308 670.846 542.87 407.728 441.609 458.382C360.741 507.628 339.645 473.859 355.116 390.843C387.463 259.988 520.368 146.017 715.857 164.308C860.716 186.821 990.808 303.606 991.511 483.709Z" stroke="#693193" stroke-width="0.1248" stroke-miterlimit="10"/>
<path d="M694.761 132.647C843.136 153.05 984.479 276.87 978.151 454.862C974.635 487.224 964.087 516.772 957.055 543.506C941.584 593.456 903.611 639.889 862.123 679.286C803.054 734.161 727.812 760.895 648.35 719.387C533.729 649.738 518.961 397.876 419.81 437.977C342.458 480.892 322.065 445.716 336.129 365.514C366.367 231.141 499.975 115.763 694.761 132.647Z" stroke="#693193" stroke-width="0.1248" stroke-miterlimit="10"/>
<path d="M679.994 93.9563C832.588 112.248 984.479 242.4 970.415 419.688C964.79 452.754 950.023 478.784 945.803 502.001C932.443 545.619 889.547 587.127 845.949 629.338C786.88 686.324 713.748 720.093 637.099 682.806C521.774 622.303 500.678 380.994 405.043 410.542C331.207 447.829 311.517 411.246 324.878 332.451C351.6 195.967 485.911 79.1823 679.994 93.9563Z" stroke="#693193" stroke-width="0.1248" stroke-miterlimit="10"/>
<path d="M668.039 52.4476C824.15 68.6286 987.292 205.816 965.493 380.994C957.054 414.763 938.771 437.979 937.365 456.974C926.817 494.965 877.593 530.141 832.588 575.87C772.816 634.966 702.496 676.474 627.957 643.408C512.632 591.347 484.504 361.295 391.682 380.29C321.362 411.245 302.376 373.958 314.33 297.274C339.645 157.976 474.659 39.7841 668.039 52.4476Z" stroke="#693193" stroke-width="0.1248" stroke-miterlimit="10"/>
<path d="M654.679 13.051C815.008 27.1215 989.402 170.64 959.164 345.115C948.616 378.884 925.41 399.989 926.817 415.467C918.378 447.126 863.529 477.377 817.118 525.92C757.346 587.831 689.136 635.67 616.706 607.529C501.381 562.504 466.925 344.411 376.915 352.853C310.111 377.477 291.828 338.783 303.079 264.209C326.988 121.394 462.705 2.49812 654.679 13.051Z" stroke="#693193" stroke-width="0.1248" stroke-miterlimit="10"/>
<path d="M638.505 -20.7178C802.35 -8.75789 987.995 141.796 950.726 314.16C938.068 348.633 910.643 366.924 914.862 378.181C909.237 404.211 848.762 428.834 800.241 480.895C740.469 544.916 674.368 600.494 604.048 576.575C487.317 539.991 446.532 332.452 359.335 330.341C296.75 349.336 278.467 309.235 288.312 236.772C310.814 91.1426 447.235 -29.1601 638.505 -20.7178Z" stroke="#693193" stroke-width="0.1248" stroke-miterlimit="10"/>
<path d="M614.597 -44.6394C782.661 -34.0866 978.854 122.096 933.849 293.052C918.379 328.229 886.735 343.706 893.767 350.741C890.251 370.44 824.15 390.139 774.223 445.014C713.748 511.145 650.46 573.759 582.249 554.06C466.221 527.326 418.404 331.043 334.02 319.083C274.951 331.746 256.668 290.942 266.513 219.886C286.906 70.7386 424.03 -50.2676 614.597 -44.6394Z" stroke="#693193" stroke-width="0.1248" stroke-miterlimit="10"/>
<path d="M571.701 -55.8946C743.282 -47.4523 950.726 115.765 897.986 285.315C880.406 321.195 844.543 333.858 854.387 336.672C853.684 350.039 781.958 364.813 729.921 422.502C669.446 491.448 608.267 560.393 542.167 545.619C426.842 527.327 371.992 341.597 290.421 319.084C234.869 326.119 217.289 283.204 225.727 214.259C244.01 63.001 382.54 -60.1157 571.701 -55.8946Z" stroke="#693193" stroke-width="0.1248" stroke-miterlimit="10"/>
<path d="M525.29 -55.8944C701.09 -49.5627 919.785 120.69 859.31 288.129C838.917 324.712 799.538 334.562 812.195 333.858C813.602 341.597 736.25 350.039 682.807 411.949C621.628 483.005 562.559 559.69 499.272 549.137C383.244 538.584 322.065 364.813 243.307 331.044C191.27 331.748 174.393 288.129 182.129 221.294C198.302 66.5189 336.832 -57.3014 525.29 -55.8944Z" stroke="#693193" stroke-width="0.1248" stroke-miterlimit="10"/>
<path d="M484.505 -43.9375C663.821 -39.7164 893.767 136.868 825.556 303.604C803.054 340.89 758.752 347.222 774.223 343.001C778.442 344.408 694.761 347.926 639.912 412.65C579.437 485.113 522.477 568.832 461.299 563.204C344.568 561.094 277.061 397.876 201.115 354.257C152.595 348.629 136.421 304.307 142.75 238.879C157.517 81.2899 297.454 -43.9375 484.505 -43.9375Z" stroke="#693193" stroke-width="0.1248" stroke-miterlimit="10"/>
<path d="M449.344 -24.2344C632.879 -22.1238 873.374 161.496 797.428 326.121C772.816 364.111 724.295 367.629 742.579 359.187C748.907 354.965 660.304 352.855 603.345 420.393C542.167 496.374 487.317 587.129 428.248 585.721C312.221 592.053 238.385 440.092 165.252 385.92C120.95 374.664 104.777 328.935 110.402 265.618C122.357 104.511 262.997 -22.1238 449.344 -24.2344Z" stroke="#693193" stroke-width="0.1248" stroke-miterlimit="10"/>
<path d="M419.107 2.49609C606.861 2.49609 858.607 192.448 774.926 356.369C747.501 394.359 694.761 395.766 716.56 383.103C725.702 372.55 630.77 365.515 573.108 435.867C511.226 513.958 459.189 611.748 402.23 614.562C285.499 628.633 204.631 488.632 134.311 423.204C93.5255 405.616 78.0552 358.48 82.2743 297.273C92.1191 134.055 233.462 6.71724 419.107 2.49609Z" stroke="#693193" stroke-width="0.1248" stroke-miterlimit="10"/>
<path d="M393.088 32.7512C584.359 30.6406 847.355 227.627 755.939 389.438C726.405 428.132 669.446 426.725 693.355 410.544C704.606 394.363 604.048 380.996 544.979 455.569C483.098 535.771 433.171 641.3 379.024 648.335C261.59 670.848 173.69 541.399 106.886 466.122C69.6166 442.202 54.1463 393.659 58.3655 334.563C66.1006 167.828 208.147 39.0829 393.088 32.7512Z" stroke="#693193" stroke-width="0.1248" stroke-miterlimit="10"/>
<path d="M371.289 65.1115C566.779 60.8904 840.323 264.209 741.172 425.316C709.528 464.713 648.35 460.492 675.072 440.09C689.136 417.577 582.952 399.286 521.774 476.673C459.893 559.689 412.075 671.55 360.038 683.51C242.604 714.465 149.078 596.273 84.3841 510.443C50.6305 480.895 36.5665 431.648 39.3793 373.959C44.3017 203.706 187.051 73.5538 371.289 65.1115Z" stroke="#693193" stroke-width="0.1248" stroke-miterlimit="10"/>
<path d="M353.006 96.7724C552.012 90.4407 836.807 300.795 729.921 459.791C695.464 499.892 630.067 492.857 660.304 468.233C677.181 439.389 564.669 416.173 502.084 496.374C439.5 581.501 393.792 700.397 344.568 717.281C227.133 756.678 126.576 649.743 64.6942 552.656C34.4567 517.48 20.3927 466.826 22.5023 411.951C26.0183 238.884 170.174 107.325 353.006 96.7724Z" stroke="#693193" stroke-width="0.1248" stroke-miterlimit="10"/>
<path d="M337.536 126.317C540.76 117.874 836.807 335.264 722.186 492.149C685.619 532.954 616.003 523.105 648.35 494.26C667.336 459.787 549.199 430.943 485.208 514.662C422.623 601.899 379.024 728.534 331.91 749.639C214.476 797.479 106.886 701.8 48.5207 594.161C22.5023 552.653 8.43836 500.592 9.84476 447.124C11.2512 271.946 156.11 138.98 337.536 126.317Z" stroke="#693193" stroke-width="0.1248" stroke-miterlimit="10"/>
<path d="M717.967 520.292C679.291 561.8 604.752 548.433 640.615 516.775C662.414 475.97 538.651 442.201 472.55 528.735C409.262 618.786 368.477 751.752 323.472 777.079C158.22 855.874 0 656.776 0 478.081C0 299.386 144.859 165.716 326.285 150.942C533.025 140.389 839.62 364.11 717.967 520.292Z" stroke="#693193" stroke-width="0.1248" stroke-miterlimit="10"/>
</g>
<defs>
<clipPath id="clip0_1_10789">
<rect width="521" height="1018" fill="white"/>
</clipPath>
</defs>
</svg>
