<svg width="577" height="841" viewBox="0 0 577 841" fill="none" xmlns="http://www.w3.org/2000/svg">
<path d="M150.59 211.592C159.603 204.504 168.583 201.385 177.721 202.478C199.669 205.324 218.06 234.226 228.312 281.353C248.156 373.764 232.581 511.371 193.608 588.142C175.747 623.08 155.269 641.154 135.74 638.377C113.791 635.531 95.4005 606.629 85.1479 559.502C65.3046 467.091 80.8793 329.484 119.853 252.714C129.157 233.965 139.872 220.02 150.59 211.592ZM191.728 587.255C230.649 510.92 246.171 373.747 226.276 281.772C216.163 235.323 198.591 206.96 177.321 203.975C158.61 201.737 138.671 218.993 121.298 253.548C82.3763 329.883 66.8536 467.056 86.7489 559.031C96.8621 605.48 114.435 633.843 135.704 636.828C154.415 639.066 174.354 621.81 191.728 587.255Z" fill="#00A79D"/>
<path d="M155.43 204.634C165.904 196.397 176.485 192.808 186.389 194.875C209.922 199.234 228.279 232.104 236.794 284.541C252.95 383.793 230.224 525.842 186.185 600.682C166.792 633.671 145.46 649.657 126.035 646.01C102.502 641.651 84.1446 608.781 75.6303 556.344C59.4741 457.092 82.2004 315.043 126.239 240.203C135.858 224.361 145.687 212.296 155.43 204.634ZM156.471 635.085C166.215 627.423 175.8 615.55 185.175 599.899C228.97 525.25 251.836 383.881 235.436 284.82C227.062 233.062 209.087 200.679 186.425 196.424C167.87 192.881 147.217 208.727 128.119 241.09C84.324 315.739 61.4583 457.108 77.858 556.169C86.2328 607.927 104.207 640.31 126.87 644.565C136.147 646.337 146.241 643.13 156.471 635.085Z" fill="#00A79D"/>
<path d="M160.312 198.822C172.735 189.053 184.865 185.428 196.458 188.139C221.523 194.447 239.656 231.042 246.379 289.223C258.413 395.265 228.013 540.588 178.961 613.063C158.087 643.669 136.285 658.054 116.772 653.293C91.7072 646.985 73.5744 610.39 66.8505 552.209C54.8166 446.167 85.217 300.844 134.269 228.368C142.653 215.468 151.787 205.527 160.312 198.822ZM151.333 641.096C159.859 634.391 168.749 624.641 177.324 611.985C226.133 539.701 256.238 395.004 244.395 289.206C238.002 231.947 220.496 195.648 196.058 189.636C177.416 184.979 156.1 198.981 135.714 229.203C86.9055 301.487 56.8007 446.184 68.6431 551.982C75.0359 609.241 92.5421 645.54 116.981 651.552C127.703 654.159 139.397 650.482 151.333 641.096Z" fill="#00A79D"/>
<path d="M164.953 193.203C179.569 181.71 193.491 177.859 206.476 181.839C233.509 190.148 251.069 231.529 255.185 294.915C262.47 407.451 224.256 555.371 170.05 624.802C147.645 653.459 125.476 665.372 106.119 659.306C79.0867 650.997 61.5263 609.616 57.4111 546.23C50.126 433.694 88.3401 285.774 142.545 216.343C150.321 206.68 157.646 198.95 164.953 193.203ZM146.493 646.48C153.801 640.734 161.125 633.003 168.414 623.723C222.376 554.484 260.294 407.19 253.392 295.142C249.416 232.435 231.995 191.732 206.025 183.771C187.295 178 165.805 189.774 143.938 217.613C89.9765 286.853 52.0581 434.146 58.9601 546.194C62.9358 608.902 80.3567 649.604 106.328 657.565C119.121 661.302 132.609 657.398 146.493 646.48Z" fill="#00A79D"/>
<path d="M168.99 189.24C186.528 175.449 202.921 171.231 217.926 176.777C246.44 187.469 263.671 233.445 264.934 302.228C267.087 420.77 220.485 570.556 161.039 635.83C137.64 661.72 114.861 671.353 95.4174 664.173C66.9043 653.481 49.6728 607.504 48.4097 538.722C46.2567 420.179 92.859 270.394 152.305 205.12C157.68 198.922 163.387 193.646 168.99 189.24ZM142.961 650.439C148.32 646.225 154.027 640.949 159.646 634.56C218.605 569.669 265.155 420.319 262.95 302.212C261.722 234.978 244.543 188.566 217.092 178.222C198.518 171.145 176.174 180.831 153.506 206.147C94.5475 271.037 47.9972 420.388 50.2023 538.495C51.43 605.728 68.6094 652.14 96.0607 662.485C109.76 667.875 125.91 663.848 142.961 650.439Z" fill="#00A79D"/>
<path d="M171.912 186.546C192.86 170.073 212.648 165.157 229.377 172.895C259.318 186.407 275.873 238.04 273.709 311.488C270.103 435.742 214.834 586.035 150.443 646.525C125.859 669.404 102.662 677.002 83.3744 668.516C53.433 655.004 36.8781 603.371 39.0419 529.923C42.6475 405.67 97.9171 255.376 162.308 194.887C165.335 191.718 168.745 189.036 171.912 186.546ZM149.294 645.063C213.441 584.765 268.415 435.098 271.968 311.28C274.028 238.702 257.856 187.556 228.542 174.34C209.881 166.15 187.362 173.608 163.509 195.913C99.3621 256.211 44.388 405.878 40.8345 529.696C38.7747 602.274 54.9466 653.42 84.2613 666.636C102.922 674.826 125.441 667.368 149.294 645.063Z" fill="#00A79D"/>
<path d="M173.211 185.128C198.788 165.015 222.352 159.889 241.675 169.924C273.428 186.741 288.488 243.492 282.654 321.798C272.906 451.275 208.638 601.155 139.215 655.746C113.639 675.858 90.0747 680.985 70.7515 670.95C38.9987 654.132 23.9385 597.382 29.7728 519.076C39.5202 389.599 103.788 239.719 173.211 185.128ZM138.501 654.336C207.437 600.128 271.409 450.875 281.105 321.833C286.835 244.398 271.914 188.326 241.032 171.612C222.579 161.682 199.45 166.86 174.604 186.398C105.425 240.797 41.4523 390.05 31.7569 519.092C25.7832 596.719 40.8954 653.035 71.83 669.313C90.2829 679.244 113.412 674.066 138.501 654.336C138.258 654.528 138.258 654.528 138.501 654.336Z" fill="#00A79D"/>
<path d="M173.192 185.15C177.089 182.086 181.178 179.264 185.267 176.443C211.785 159.533 235.959 156.686 254.83 168.653C288.099 189.404 301.664 251.272 291.777 333.948C275.504 468.162 201.959 616.27 127.608 664.092C101.09 681.003 76.916 683.849 58.0446 671.883C24.776 651.132 11.2106 589.264 21.0984 506.588C36.4859 379.771 103.038 240.316 173.192 185.15ZM138.482 654.359C208.148 599.576 274.648 460.556 289.792 333.931C299.82 251.934 286.202 190.501 253.752 170.29C235.264 158.81 212.012 161.325 186.173 178.096C112.309 225.536 38.8155 373.209 22.5954 506.988C12.568 588.985 26.1855 650.418 58.6358 670.629C77.1241 682.109 100.376 679.593 126.215 662.822C130.495 660.245 134.584 657.424 138.482 654.359Z" fill="#00A79D"/>
<path d="M171.273 186.657C180.286 179.57 189.143 173.788 198.087 169.12C225.354 155.168 249.843 155.228 268.697 169.179C303.186 194.489 314.822 261.422 300.254 348.173C277.073 486.636 193.972 631.615 114.605 671.556C87.3373 685.508 62.849 685.448 43.9942 671.497C9.50553 646.187 -2.13 579.253 12.438 492.502C33.2576 370.087 100.876 242.014 171.273 186.657ZM140.652 653.044C210.562 598.07 278.129 470.432 298.705 348.208C312.977 262.085 301.481 195.83 267.811 171.059C249.339 157.595 225.721 157.639 198.94 171.208C190.24 175.684 181.14 181.658 172.37 188.554C102.46 243.528 34.894 371.166 14.3181 493.389C0.045708 579.513 11.5417 645.768 45.2121 670.539C63.6838 684.003 87.3019 683.959 114.082 670.39C123.026 665.722 131.883 659.94 140.652 653.044Z" fill="#00A79D"/>
<path d="M166.507 189.617C181.61 177.741 196.592 168.72 211.349 163.423C239.749 152.916 264.552 155.883 283.39 171.818C318.611 202.071 327.882 274.018 308.494 364.164C277.883 505.711 184.946 646.203 101.294 677.687C72.8942 688.193 48.0914 685.227 29.2533 669.292C-5.96837 639.039 -15.2388 567.092 4.14894 476.945C29.5656 360.376 96.8407 244.4 166.507 189.617ZM145.23 649.839C214.653 595.248 281.632 479.898 306.806 363.521C326.089 274.245 316.958 202.976 282.363 173.019C264.152 157.38 239.976 154.709 212.254 165.076C129.09 196.176 36.6397 336.285 6.32463 477.206C-12.9591 566.482 -3.82809 637.75 30.7668 667.707C48.9783 683.347 73.1544 686.017 100.876 675.651C115.389 670.545 130.371 661.524 145.23 649.839Z" fill="#00A79D"/>
<path d="M158.871 194.045C181.281 176.423 203.694 164.318 225.517 158.983C254.858 151.679 280.167 157.796 298.641 176.777C334.248 213.034 340.527 289.699 316.04 381.884C277.616 526.027 174.808 660.484 87.0274 682.205C57.686 689.509 32.3772 683.393 13.9034 664.412C-21.7036 628.154 -27.9823 551.489 -3.49581 459.305C25.5791 350.897 90.9099 247.487 158.871 194.045ZM152.768 645.49C220.485 592.239 285.52 489.457 314.352 381.24C338.786 289.491 332.403 213.696 297.423 177.734C279.524 159.484 254.65 153.42 225.988 160.584C138.694 181.922 36.3735 315.996 -1.75524 459.513C-26.1897 551.262 -19.8069 627.057 15.1733 663.019C33.0726 681.269 57.9462 687.333 86.6089 680.169C108.189 675.026 130.601 662.921 152.768 645.49Z" fill="#00A79D"/>
<path d="M148.052 199.791C179.232 175.272 210.867 159.857 240.419 156.329C271.085 152.714 296.847 162.416 314.957 184.443C350.027 227.036 353.122 308.175 323.206 401.476C276.689 546.858 163.923 674.166 72.1695 684.819C41.5039 688.434 15.7412 678.732 -2.36846 656.705C-37.4383 614.113 -40.5338 532.973 -10.6175 439.672C21.0372 341.062 83.0141 250.934 148.052 199.791ZM163.822 639.948C228.617 588.996 290.35 499.059 321.517 400.832C351.138 308.158 348.182 227.698 313.495 185.592C295.769 164.052 270.633 154.646 240.646 158.122C149.328 168.827 37.5361 295.369 -8.92897 440.316C-38.5497 532.99 -35.5937 613.45 -0.906952 655.556C16.8196 677.096 41.9556 686.502 71.9425 683.026C101.494 679.499 132.886 664.275 163.822 639.948Z" fill="#00A79D"/>
<path d="M133.8 206.27C174.966 173.898 217.809 155.189 256.186 155.365C288.368 155.683 314.532 169.405 332.174 195.348C365.784 244.607 364.878 329.682 329.932 422.602C274.747 568.492 152.283 686.474 56.8527 685.433C24.6714 685.115 -1.49326 671.394 -19.1345 645.45C-52.745 596.191 -51.839 511.117 -16.8926 418.197C16.0199 331.213 72.9025 254.157 133.8 206.27ZM178.038 633.502C238.448 585.998 295.087 509.134 328 422.15C362.894 329.665 363.94 245.269 330.521 196.254C313.262 170.798 287.481 157.563 255.978 157.106C161.227 155.925 39.4931 273.333 -15.2041 418.84C-50.0985 511.325 -51.144 595.72 -17.725 644.736C-0.46689 670.192 25.3146 683.427 56.8173 683.884C94.951 684.252 137.359 665.49 178.038 633.502Z" fill="#00A79D"/>
<path d="M116.018 212.755C168.146 171.764 224.181 149.777 272.133 156.615C305.778 161.301 332.676 179.965 349.553 210.452C380.834 266.273 375.352 354.552 335.288 445.977C271.349 591.262 139.151 698.37 40.6348 684.381C6.98973 679.695 -19.9078 661.031 -36.7851 630.545C-68.014 574.288 -62.5838 486.444 -22.2762 394.828C10.4324 320.619 60.9673 256.045 116.018 212.755ZM195.792 627.023C250.599 583.925 301.082 519.786 333.843 445.142C373.611 354.344 378.989 266.935 348.144 211.166C331.406 181.358 305.135 162.989 271.925 158.355C174.036 144.662 42.8122 251.004 -20.8313 395.662C-60.8433 486.652 -66.2214 574.061 -35.3756 629.83C-18.6379 659.638 7.63305 678.007 40.843 682.641C88.3604 689.427 143.907 667.823 195.792 627.023Z" fill="#00A79D"/>
<path d="M95.9439 218.293C159.764 168.107 230.818 144.165 288.521 159.893C324.204 169.678 351.539 193.912 367.357 229.568C394.95 292.231 384.805 382.6 339.831 470.79C266.858 614.111 125.135 708.605 24.0724 680.85C-11.611 671.065 -38.9459 646.832 -54.7635 611.176C-82.3574 548.513 -72.2116 458.144 -27.2382 369.954C4.1528 308.607 47.9568 256.028 95.9439 218.293ZM215.691 621.233C263.435 583.689 307.187 531.545 338.386 469.955C383.116 381.956 393.401 292.266 365.756 230.038C350.321 194.869 323.369 171.123 288.121 161.39C187.685 133.931 46.9361 227.659 -25.7412 370.353C-70.471 458.352 -80.7564 548.042 -53.1104 610.27C-37.676 645.439 -10.7241 669.185 24.5242 678.918C81.7396 695.029 152.115 671.227 215.691 621.233Z" fill="#00A79D"/>
<path d="M74.3569 221.87C150.113 162.299 238.014 137.723 305.729 165.683C343.782 181.489 371.259 211.919 385.426 253.998C408.566 322.528 392.799 413.769 343.699 497.714C261.361 638.15 110.616 717.662 7.35509 675.079C-30.6978 659.274 -58.1744 628.844 -72.3411 586.765C-95.4817 518.235 -79.7146 426.993 -30.6146 343.048C-2.33386 294.792 34.1647 253.476 74.3569 221.87ZM237.335 617.622C277.283 586.208 313.73 545.328 341.819 496.827C390.867 413.318 406.774 322.755 383.581 254.66C369.554 213.26 342.269 183.073 304.843 167.563C202.643 125.328 52.5769 204.701 -29.2217 344.318C-78.2697 427.828 -93.7412 518.443 -70.7922 586.73C-56.7649 628.13 -29.4799 658.316 7.94633 673.826C74.8433 701.247 162.066 676.811 237.335 617.622Z" fill="#00A79D"/>
<path d="M52.211 222.726C139.659 153.961 246.08 131.379 323.06 174.129C363.379 196.826 390.841 234.758 402.626 283.834C420.112 357.205 398.879 448.014 345.809 526.408C253.879 662.166 94.5125 725.199 -9.97334 667.022C-50.5351 644.517 -77.9973 606.586 -89.7824 557.509C-107.268 484.138 -86.036 393.329 -33.1571 314.692C-8.75271 278.55 20.5444 247.628 52.211 222.726ZM259.727 616.964C291.393 592.062 320.447 561.332 344.608 525.381C397.191 447.37 418.563 357.241 400.833 284.061C389.431 235.472 361.917 197.976 321.79 175.522C245.68 132.876 140.13 155.562 53.1688 223.944C21.5022 248.846 -7.55138 279.576 -31.7121 315.527C-84.2954 393.538 -105.667 483.667 -87.9378 556.847C-76.5358 605.436 -49.0216 642.932 -8.89487 665.386C67.0236 707.788 172.765 685.346 259.727 616.964Z" fill="#00A79D"/>
<path d="M30.0402 219.658C128.694 142.081 254.818 124.504 340.021 185.23C383.127 215.984 410.227 262.479 418.465 319.075C429.861 397.235 403.632 483.694 347.026 556.59C245.661 686.365 77.6885 730.935 -27.4306 655.911C-70.5367 625.156 -97.6369 578.662 -105.874 522.065C-117.271 443.906 -91.0414 357.446 -34.4356 284.55C-14.9174 259.741 6.89928 237.855 30.0402 219.658ZM281.401 620.021C304.542 601.824 326.306 580.373 345.633 555.32C402.378 483.103 428.12 397.027 417.107 319.354C409.061 263.001 381.909 216.942 339.43 186.483C255.045 126.297 129.791 143.977 31.6247 221.171C8.48372 239.368 -13.281 260.82 -32.6076 285.872C-89.1613 358.333 -115.147 444.601 -103.89 522.082C-95.8443 578.435 -68.6921 624.494 -26.2127 654.953C58.2237 714.704 183.234 697.215 281.401 620.021Z" fill="#00A79D"/>
<path d="M9.2697 212.346C118.641 126.341 265.359 117.406 357.601 198.614C402.712 238.436 429.434 295.477 433.01 359.682C437.567 439.672 405.993 522.844 346.982 588.169C236.146 710.412 60.4555 734.639 -44.5661 642.192C-89.6774 602.371 -116.399 545.329 -119.975 481.125C-124.532 401.135 -92.9581 317.963 -33.9474 252.637C-20.4648 237.699 -6.07639 224.413 9.2697 212.346ZM302.372 627.191C317.475 615.315 331.863 602.03 345.346 587.091C404.304 522.2 435.391 439.412 431.217 359.909C427.781 296.383 401.007 239.776 356.523 200.251C265.099 119.582 119.303 128.185 10.419 213.807C-4.6835 225.683 -19.0719 238.969 -32.5546 253.907C-91.5132 318.798 -122.6 401.587 -118.426 481.09C-114.798 544.859 -88.4594 601.413 -43.5397 640.991C47.8842 721.66 193.488 712.813 302.372 627.191Z" fill="#00A79D"/>
<path d="M-10.3085 200.928C109.537 106.686 277.146 111.284 375.002 215.673C478.708 326.5 465.326 508.505 344.983 621.666C286.595 676.253 212.289 707.089 135.431 707.606C58.5198 708.559 -11.4586 679.226 -61.9708 625.518C-112.483 571.809 -137 500.025 -131.374 423.46C-125.748 346.894 -90.3929 274.547 -32.1961 219.716C-25.2195 213.047 -17.8598 206.866 -10.3085 200.928ZM321.946 638.993C329.498 633.055 336.857 626.873 343.834 620.204C463.638 507.862 476.672 326.918 373.54 216.822C276.259 113.164 109.521 108.67 -9.35078 202.146C-16.6585 207.892 -24.0181 214.074 -30.9948 220.743C-89.1395 275.138 -124.007 347.103 -129.581 423.233C-135.155 499.363 -110.586 570.712 -60.7008 624.125C-10.5717 677.346 58.78 706.384 135.447 705.622C202.385 705.021 267.87 681.516 321.946 638.993Z" fill="#00A79D"/>
<path d="M-28.7529 185.076C101.08 82.9812 289.686 105.759 391.589 235.348C493.685 365.181 471.342 553.839 341.509 655.934C211.676 758.029 23.0706 735.252 -78.8329 605.662C-180.928 475.829 -158.586 287.171 -28.7529 185.076ZM340.36 654.472C469.462 552.952 491.892 365.408 390.372 236.306C288.851 107.203 101.307 84.7737 -27.7952 186.294C-156.897 287.815 -179.327 475.359 -77.8065 604.461C23.7139 733.563 211.258 755.993 340.36 654.472Z" fill="#00A79D"/>
</svg>
