<svg width="521" height="1019" viewBox="0 0 521 1019" fill="none" xmlns="http://www.w3.org/2000/svg">
<g clip-path="url(#clip0_1_11852)">
<path d="M808.679 663.148C827.666 829.18 675.071 953.704 498.568 961.442C317.846 966.367 173.69 830.587 172.284 651.892C175.096 472.493 337.536 183.344 597.719 267.064C698.277 308.572 774.926 383.849 779.145 480.935C779.848 539.328 798.131 600.534 808.679 663.148Z" stroke="#E66B5B" stroke-width="0.1248" stroke-miterlimit="10"/>
<path d="M824.15 652.594C841.027 819.329 689.136 947.371 513.336 948.778C336.13 948.778 201.115 804.555 193.38 640.634C189.864 475.306 341.755 202.338 586.469 275.505C682.807 305.756 762.972 369.777 779.145 461.939C788.99 517.517 813.602 582.945 824.15 652.594Z" stroke="#E66B5B" stroke-width="0.1248" stroke-miterlimit="10"/>
<path d="M845.246 634.3C860.716 801.035 708.825 933.298 533.728 928.373C360.741 923.448 234.166 771.487 220.102 621.636C211.663 470.379 351.6 213.592 581.546 276.206C673.665 295.905 757.346 347.965 785.474 435.202C803.757 488.67 835.401 557.616 845.246 634.3Z" stroke="#E66B5B" stroke-width="0.1248" stroke-miterlimit="10"/>
<path d="M869.858 611.083C883.922 778.522 732.031 914.302 556.934 903.045C388.166 892.493 270.029 732.792 249.636 597.012C236.275 459.825 364.961 219.22 579.437 271.28C666.633 280.426 753.83 320.527 794.616 402.839C822.04 454.197 860.716 526.66 869.858 611.083Z" stroke="#E66B5B" stroke-width="0.1248" stroke-miterlimit="10"/>
<path d="M896.579 584.352C909.237 751.791 757.346 891.792 582.953 874.204C418.404 858.727 308.705 691.288 281.983 569.578C262.997 447.165 380.431 222.037 579.437 264.248C662.414 262.138 753.127 290.982 805.867 368.37C842.433 416.913 888.141 492.19 896.579 584.352Z" stroke="#E66B5B" stroke-width="0.1248" stroke-miterlimit="10"/>
<path d="M923.301 556.914C934.552 725.057 782.661 869.279 608.268 844.656C447.938 824.254 346.677 648.373 314.33 541.437C290.421 433.094 395.901 224.147 579.436 255.806C658.195 243.142 752.423 260.027 817.118 332.49C862.123 378.923 915.566 457.717 923.301 556.914Z" stroke="#E66B5B" stroke-width="0.1248" stroke-miterlimit="10"/>
<path d="M947.913 536.511C957.054 705.357 805.867 853.097 632.176 822.142C476.066 796.112 383.244 612.492 344.568 519.627C315.033 426.058 409.262 232.589 577.327 253.694C651.866 230.478 749.611 234.699 825.556 302.941C881.109 347.263 940.881 429.575 947.913 536.511Z" stroke="#E66B5B" stroke-width="0.1248" stroke-miterlimit="10"/>
<path d="M969.009 521.033C976.744 689.879 825.556 841.841 652.569 804.554C500.678 773.599 416.294 582.24 371.289 503.445C336.832 423.947 419.107 246.659 572.404 257.212C642.724 223.443 743.985 215.704 831.885 278.317C895.173 321.936 962.68 407.766 969.009 521.033Z" stroke="#E66B5B" stroke-width="0.1248" stroke-miterlimit="10"/>
<path d="M984.479 513.999C990.808 683.548 839.62 839.027 666.633 795.408C518.961 759.529 443.016 559.728 391.682 495.707C352.303 430.279 423.326 269.172 561.153 269.172C627.254 224.146 732.031 205.151 831.885 262.84C904.315 303.645 978.151 392.289 984.479 513.999Z" stroke="#E66B5B" stroke-width="0.1248" stroke-miterlimit="10"/>
<path d="M991.512 515.406C996.434 684.956 845.246 844.656 672.962 794.705C528.806 753.198 462.002 545.658 404.34 496.411C359.335 445.054 419.107 300.128 541.464 290.278C603.345 234.7 711.638 203.745 823.447 256.509C905.018 294.5 986.589 386.661 991.512 515.406Z" stroke="#E66B5B" stroke-width="0.1248" stroke-miterlimit="10"/>
<path d="M989.402 531.589C992.215 701.842 841.73 865.763 670.149 808.778C530.213 762.345 471.847 547.066 407.856 511.89C357.929 474.603 405.746 345.155 512.633 325.456C570.295 259.325 682.104 216.41 805.867 264.25C896.579 300.129 985.183 395.809 989.402 531.589Z" stroke="#E66B5B" stroke-width="0.1248" stroke-miterlimit="10"/>
<path d="M996.434 548.472C997.84 719.428 847.355 886.867 675.775 823.55C540.76 771.489 490.13 547.768 419.81 527.366C364.96 504.853 401.527 391.586 492.943 360.63C546.386 283.243 661.711 229.071 797.428 271.986C897.282 305.756 992.214 404.953 996.434 548.472Z" stroke="#E66B5B" stroke-width="0.1248" stroke-miterlimit="10"/>
<path d="M1022.45 535.105C1022.45 706.062 871.967 877.722 701.09 808.073C569.591 751.087 528.103 519.628 451.454 513.296C390.979 504.854 416.294 407.767 492.943 366.26C542.167 278.319 661.007 212.188 808.679 250.178C916.269 281.837 1018.94 384.551 1022.45 535.105Z" stroke="#E66B5B" stroke-width="0.1248" stroke-miterlimit="10"/>
<path d="M1032.3 517.517C1030.89 689.177 880.406 864.355 709.528 788.374C582.249 726.464 549.199 487.266 466.221 495.004C400.824 501.336 414.184 419.727 475.363 368.37C520.367 269.877 642.724 191.082 802.35 224.851C919.785 252.992 1028.78 359.928 1032.3 517.517Z" stroke="#E66B5B" stroke-width="0.1248" stroke-miterlimit="10"/>
<path d="M1022.45 508.371C1019.64 680.031 869.155 859.43 698.98 777.117C575.92 709.579 550.605 462.642 462.002 484.451C390.979 504.853 393.792 439.425 439.5 377.515C480.285 268.469 606.158 177.714 777.739 206.559C903.611 233.293 1019.64 343.042 1022.45 508.371Z" stroke="#E66B5B" stroke-width="0.1248" stroke-miterlimit="10"/>
<path d="M1004.87 499.929C999.95 672.293 850.168 855.209 680.697 766.565C561.153 693.399 544.979 438.723 449.344 474.603C373.399 509.779 364.257 459.828 394.495 387.365C431.061 267.063 560.45 165.052 743.985 188.268C879.702 213.595 1002.76 326.862 1004.87 499.929Z" stroke="#E66B5B" stroke-width="0.1248" stroke-miterlimit="10"/>
<path d="M991.511 484.451C985.183 657.518 835.401 844.655 665.93 748.976C551.308 671.588 542.87 408.47 441.609 459.124C360.741 508.37 339.645 474.601 355.116 391.585C387.463 260.73 520.368 146.759 715.857 165.051C860.716 187.563 990.808 304.348 991.511 484.451Z" stroke="#E66B5B" stroke-width="0.1248" stroke-miterlimit="10"/>
<path d="M694.761 133.393C843.136 153.796 984.479 277.616 978.151 455.608C974.635 487.97 964.087 517.518 957.055 544.252C941.584 594.202 903.611 640.635 862.123 680.032C803.054 734.907 727.812 761.641 648.35 720.133C533.729 650.484 518.961 398.622 419.81 438.723C342.458 481.638 322.065 446.462 336.129 366.26C366.367 231.887 499.975 116.509 694.761 133.393Z" stroke="#E66B5B" stroke-width="0.1248" stroke-miterlimit="10"/>
<path d="M679.994 94.6985C832.588 112.99 984.479 243.142 970.415 420.43C964.79 453.496 950.023 479.526 945.803 502.743C932.443 546.361 889.547 587.869 845.949 630.081C786.88 687.066 713.748 720.835 637.099 683.549C521.774 623.045 500.678 381.737 405.043 411.285C331.207 448.571 311.517 411.988 324.878 333.193C351.6 196.71 485.911 79.9245 679.994 94.6985Z" stroke="#E66B5B" stroke-width="0.1248" stroke-miterlimit="10"/>
<path d="M668.039 53.1898C824.15 69.3708 987.292 206.558 965.493 381.736C957.054 415.505 938.771 438.721 937.365 457.716C926.817 495.707 877.593 530.883 832.588 576.612C772.816 635.708 702.496 677.216 627.957 644.15C512.632 592.09 484.504 362.037 391.682 381.032C321.362 411.987 302.376 374.7 314.33 298.016C339.645 158.718 474.659 40.5263 668.039 53.1898Z" stroke="#E66B5B" stroke-width="0.1248" stroke-miterlimit="10"/>
<path d="M654.679 13.7932C815.008 27.8637 989.402 171.383 959.164 345.857C948.616 379.626 925.41 400.732 926.817 416.209C918.378 447.868 863.529 478.119 817.118 526.663C757.346 588.573 689.136 636.412 616.706 608.271C501.381 563.246 466.925 345.153 376.915 353.596C310.111 378.219 291.828 339.525 303.079 264.951C326.988 122.136 462.705 3.2403 654.679 13.7932Z" stroke="#E66B5B" stroke-width="0.1248" stroke-miterlimit="10"/>
<path d="M638.505 -19.9756C802.35 -8.0157 987.995 142.539 950.726 314.902C938.068 349.375 910.643 367.666 914.862 378.923C909.237 404.953 848.762 429.577 800.241 481.637C740.469 545.658 674.368 601.237 604.048 577.317C487.317 540.733 446.532 333.194 359.335 331.083C296.75 350.078 278.467 309.977 288.312 237.514C310.814 91.8848 447.235 -28.4179 638.505 -19.9756Z" stroke="#E66B5B" stroke-width="0.1248" stroke-miterlimit="10"/>
<path d="M614.597 -43.8933C782.661 -33.3405 978.854 122.842 933.849 293.798C918.379 328.975 886.735 344.452 893.767 351.487C890.251 371.186 824.15 390.885 774.223 445.76C713.748 511.891 650.46 574.505 582.249 554.806C466.221 528.072 418.404 331.789 334.02 319.829C274.951 332.492 256.668 291.688 266.513 220.632C286.906 71.4847 424.03 -49.5215 614.597 -43.8933Z" stroke="#E66B5B" stroke-width="0.1248" stroke-miterlimit="10"/>
<path d="M571.701 -55.1524C743.282 -46.7101 950.726 116.508 897.986 286.057C880.406 321.937 844.543 334.6 854.387 337.414C853.684 350.781 781.958 365.555 729.921 423.244C669.446 492.19 608.267 561.135 542.167 546.361C426.842 528.069 371.992 342.339 290.421 319.826C234.869 326.861 217.289 283.946 225.727 215.001C244.01 63.7432 382.54 -59.3736 571.701 -55.1524Z" stroke="#E66B5B" stroke-width="0.1248" stroke-miterlimit="10"/>
<path d="M525.29 -55.1522C701.09 -48.8205 919.785 121.432 859.31 288.871C838.917 325.455 799.538 335.304 812.195 334.6C813.602 342.339 736.25 350.781 682.807 412.692C621.628 483.748 562.559 560.432 499.272 549.879C383.244 539.326 322.065 365.556 243.307 331.786C191.27 332.49 174.393 288.871 182.129 222.036C198.302 67.2611 336.832 -56.5592 525.29 -55.1522Z" stroke="#E66B5B" stroke-width="0.1248" stroke-miterlimit="10"/>
<path d="M484.505 -43.1914C663.821 -38.9703 893.767 137.614 825.556 304.35C803.054 341.637 758.752 347.968 774.223 343.747C778.442 345.154 694.761 348.672 639.912 413.396C579.437 485.859 522.477 569.578 461.299 563.95C344.568 561.84 277.061 398.622 201.115 355.004C152.595 349.375 136.421 305.053 142.75 239.625C157.517 82.036 297.454 -43.1914 484.505 -43.1914Z" stroke="#E66B5B" stroke-width="0.1248" stroke-miterlimit="10"/>
<path d="M449.344 -23.4961C632.879 -21.3855 873.374 162.234 797.428 326.859C772.816 364.85 724.295 368.367 742.579 359.925C748.907 355.704 660.304 353.593 603.345 421.131C542.167 497.112 487.317 587.867 428.248 586.46C312.221 592.791 238.385 440.83 165.252 386.659C120.95 375.402 104.777 329.673 110.402 266.356C122.357 105.249 262.997 -21.3855 449.344 -23.4961Z" stroke="#E66B5B" stroke-width="0.1248" stroke-miterlimit="10"/>
<path d="M419.107 3.23828C606.861 3.23828 858.607 193.19 774.926 357.111C747.501 395.101 694.761 396.509 716.56 383.845C725.702 373.292 630.77 366.257 573.108 436.609C511.226 514.701 459.189 612.491 402.23 615.305C285.499 629.375 204.631 489.374 134.311 423.946C93.5255 406.358 78.0552 359.222 82.2743 298.015C92.1191 134.797 233.462 7.45943 419.107 3.23828Z" stroke="#E66B5B" stroke-width="0.1248" stroke-miterlimit="10"/>
<path d="M393.088 33.4895C584.359 31.3789 847.355 228.366 755.939 390.176C726.405 428.87 669.446 427.463 693.355 411.282C704.606 395.101 604.048 381.734 544.979 456.308C483.098 536.51 433.171 642.038 379.024 649.073C261.59 671.586 173.69 542.138 106.886 466.861C69.6166 442.941 54.1463 394.398 58.3655 335.301C66.1006 168.566 208.147 39.8212 393.088 33.4895Z" stroke="#E66B5B" stroke-width="0.1248" stroke-miterlimit="10"/>
<path d="M371.289 65.8537C566.779 61.6326 840.323 264.951 741.172 426.058C709.528 465.456 648.35 461.235 675.072 440.832C689.136 418.32 582.952 400.028 521.774 477.416C459.893 560.431 412.075 672.292 360.038 684.252C242.604 715.207 149.078 597.015 84.3841 511.185C50.6305 481.637 36.5665 432.39 39.3793 374.701C44.3017 204.448 187.051 74.296 371.289 65.8537Z" stroke="#E66B5B" stroke-width="0.1248" stroke-miterlimit="10"/>
<path d="M353.006 97.5107C552.012 91.179 836.807 301.533 729.921 460.529C695.464 500.63 630.067 493.595 660.304 468.972C677.181 440.127 564.669 416.911 502.084 497.113C439.5 582.239 393.792 701.135 344.568 718.019C227.133 757.417 126.576 650.481 64.6942 553.395C34.4567 518.218 20.3927 467.565 22.5023 412.69C26.0183 239.623 170.174 108.064 353.006 97.5107Z" stroke="#E66B5B" stroke-width="0.1248" stroke-miterlimit="10"/>
<path d="M337.536 127.063C540.76 118.621 836.807 336.01 722.186 492.896C685.619 533.7 616.003 523.851 648.35 495.006C667.336 460.533 549.199 431.689 485.208 515.408C422.623 602.645 379.024 729.28 331.91 750.386C214.476 798.225 106.886 702.546 48.5207 594.907C22.5023 553.399 8.43836 501.338 9.84476 447.87C11.2512 272.692 156.11 139.726 337.536 127.063Z" stroke="#E66B5B" stroke-width="0.1248" stroke-miterlimit="10"/>
<path d="M717.967 521.035C679.291 562.543 604.752 549.176 640.615 517.517C662.414 476.713 538.651 442.943 472.55 529.477C409.262 619.528 368.477 752.494 323.472 777.821C158.22 856.616 0 657.518 0 478.823C0 300.128 144.859 166.458 326.285 151.684C533.025 141.131 839.62 364.852 717.967 521.035Z" stroke="#E66B5B" stroke-width="0.1248" stroke-miterlimit="10"/>
</g>
<defs>
<clipPath id="clip0_1_11852">
<rect width="521" height="1018" fill="white" transform="translate(0 0.742188)"/>
</clipPath>
</defs>
</svg>
