<svg width="302" height="467" viewBox="0 0 302 467" fill="none" xmlns="http://www.w3.org/2000/svg">
<path d="M70.3768 175.492C72.0554 174.172 73.7804 173.443 75.5241 173.534C78.6794 173.561 81.273 176.327 82.6218 180.7L96.6091 229.048C98.503 235.708 97.2705 245.036 93.4167 251.828C91.204 255.658 88.5664 258.15 85.6605 258.972L50.947 268.507C48.53 269.154 46.3802 268.546 44.6265 266.581C40.5838 262.237 39.9247 252.098 43.0765 243.351L63.8026 185.468C65.5076 180.993 67.7943 177.523 70.3768 175.492ZM88.1966 256.351C89.617 255.234 91.1201 253.425 92.3186 251.229C96.0156 244.769 97.2206 235.672 95.4006 229.371L81.4132 181.023C80.24 177.14 78.1817 174.788 75.4877 174.817C71.6405 174.708 67.4997 179.008 65.0299 185.966L44.3037 243.849C40.8109 253.491 42.429 262.458 45.5303 265.87C46.9794 267.447 48.668 268 50.6236 267.298L85.3371 257.763C86.4165 257.542 87.2928 257.061 88.1966 256.351Z" fill="#00A79D"/>
<path d="M67.7498 170.247C69.2993 169.028 71.0243 168.299 72.6665 168.261C76.08 168.084 78.8303 170.519 80.5113 175.048L98.8723 224.972C103.112 236.475 97.7494 254.901 89.0506 258.189L51.8849 272.578C49.3112 273.557 46.9031 273.152 44.7896 271.262C40.1565 266.964 38.833 256.512 41.7629 246.685L60.6691 182.502C62.2814 176.845 64.78 172.582 67.7498 170.247ZM90.9687 255.845C97.554 250.667 101.377 235.332 97.7654 225.424L79.4043 175.501C77.8989 171.46 75.5823 169.312 72.7592 169.442C68.5245 169.637 64.0428 174.833 61.8224 182.639L43.0178 246.952C39.876 257.572 42.0294 266.954 45.7211 270.32C47.4008 271.925 49.3476 272.275 51.4324 271.471L88.5981 257.082C89.4468 256.833 90.3231 256.353 90.9687 255.845Z" fill="#00A79D"/>
<path d="M64.726 165.098C66.1464 163.981 67.6406 163.224 69.2829 163.186C72.724 162.779 75.834 165.14 77.8748 169.595L101.357 220.716C106.722 232.588 102.089 252.739 92.9941 257.383L53.5241 277.346C50.7938 278.657 48.1274 278.455 45.7556 276.767C40.4029 272.618 38.4151 261.852 40.8925 250.918L56.9821 179.964C58.4001 172.998 61.3688 167.738 64.726 165.098ZM93.9896 254.929C101.35 249.141 104.885 231.315 100.148 221.039L76.6663 169.919C74.8011 165.952 72.2263 164.006 69.274 164.238C65.2425 164.692 60.1979 169.704 57.9323 179.844L41.8427 250.798C39.2825 262.424 42.1003 272.119 46.2809 275.31C48.3205 276.84 50.5256 276.987 52.767 275.851L92.237 255.889C92.9566 255.741 93.4731 255.335 93.9896 254.929Z" fill="#00A79D"/>
<path d="M60.9347 159.723C62.2259 158.707 63.7202 157.95 65.1593 157.654C68.8587 157.044 72.1255 159.072 74.526 163.454L103.313 215.209C109.961 227.117 106.261 249.252 96.7694 255.253L55.2722 281.406C52.3575 283.28 49.3037 283.383 46.5998 281.539C40.7582 277.565 37.8753 266.458 39.7435 254.749L52.4536 176.84C53.8529 169.053 56.9319 162.87 60.9347 159.723ZM97.1932 253.666C105.457 247.167 108.475 226.823 102.409 215.92L73.6221 164.165C71.3971 160.272 68.4625 158.4 65.4827 158.863C61.0638 159.621 55.6782 165.528 53.8375 177.006L41.1274 254.915C39.0473 267.417 42.7602 277.453 47.4297 280.468C49.6999 282.027 52.1632 281.97 54.8196 280.299L96.3169 254.146C96.5476 254.173 96.8058 253.97 97.1932 253.666Z" fill="#00A79D"/>
<path d="M56.5247 154.62C57.6868 153.706 59.0519 153.051 60.3895 152.626C64.2456 151.683 67.7707 153.509 70.6601 157.715L105.527 209.495C113.457 221.44 111.049 245.484 101.033 252.942L57.5548 285.878C54.4558 288.314 51.1438 288.62 47.951 286.952C41.5929 283.384 37.8425 271.705 38.9723 259.323L47.5834 174.607C48.6593 165.611 52.0053 158.174 56.5247 154.62ZM100.451 251.937C109.748 244.626 112.073 221.274 104.522 210.077L69.7562 158.425C67.1715 154.607 63.9786 152.938 60.7129 153.834C54.9288 155.248 50.0333 163.904 48.9674 174.773L40.3563 259.489C38.9594 273.126 43.4933 283.143 48.6518 285.983C51.2818 287.467 54.1325 287.106 56.9456 285.103L100.424 252.167C100.322 252.038 100.322 252.038 100.451 251.937Z" fill="#00A79D"/>
<path d="M51.3829 149.678C52.4158 148.866 53.5504 148.183 54.888 147.758C58.9008 146.483 62.8132 148.004 66.1915 152.034L107.452 203.176C116.922 214.954 115.807 240.907 105.57 250.211L60.4896 290.675C57.2064 293.675 53.3778 294.387 49.8252 292.792C42.7475 289.372 38.0469 277.814 38.6967 264.556L42.5167 172.95C42.7339 162.331 46.2179 153.74 51.3829 149.678ZM58.7735 290.353C59.0317 290.15 59.29 289.947 59.4191 289.845L104.499 249.381C114.322 240.612 115.382 215.121 106.29 204.09L65.0294 152.948C62.0848 149.204 58.5046 147.84 55.0823 149.068C48.6249 151.22 43.8221 161.057 43.4394 173.06L39.6194 264.666C38.9608 278.976 44.4173 289.104 50.0647 291.768C53.082 292.948 56.0619 292.485 58.7735 290.353Z" fill="#00A79D"/>
<path d="M45.5081 144.894C46.4119 144.183 47.4173 143.601 48.3951 143.25C52.4631 141.514 56.7629 142.731 60.6301 146.585L108.856 196.22C119.894 207.601 120.431 235.389 109.844 246.64L63.54 295.381C60.0449 299.174 55.8291 300.19 51.7875 298.771C44.0642 295.859 38.4686 283.96 38.1494 270.001L36.099 171.727C36.122 159.798 39.6975 149.463 45.5081 144.894ZM63.1339 294.864L62.5986 294.449L109.032 245.607C119.075 234.993 118.483 207.666 108.081 196.83L59.8554 147.195C56.4219 143.626 52.685 142.594 48.8753 144.127C41.9754 147.045 37.2377 158.293 37.5382 171.431L39.5885 269.705C39.8613 283.073 45.0508 294.456 52.4419 297.212C56.0222 298.576 59.6476 297.606 62.8569 294.246L63.1339 294.864Z" fill="#00A79D"/>
<path d="M38.8988 140.481C39.5444 139.973 40.3191 139.364 41.0663 138.986C45.4201 136.816 50.0057 137.598 54.2603 141.148L110.05 188.179C122.915 198.959 125.335 228.61 114.5 241.937L67.4795 299.599C63.7725 304.186 59.2432 305.867 54.5097 304.365C46.1684 301.73 39.5209 289.821 38.3066 275.522L29.6664 170.727C28.5449 157.609 32.3135 145.659 38.8988 140.481ZM67.0457 299.313L66.5105 298.898L113.531 241.236C123.693 228.648 121.449 199.485 109.22 189.249L53.4304 142.219C49.508 138.825 45.3837 138.098 41.3897 140.194C33.789 144.081 29.4763 156.667 30.589 170.838L39.2293 275.632C40.3696 289.572 46.6109 300.964 54.62 303.442C58.7907 304.76 62.8311 303.255 66.3814 299L67.0457 299.313Z" fill="#00A79D"/>
<path d="M31.4324 136.53C31.8198 136.225 32.3363 135.819 32.8252 135.644C37.2617 132.782 42.3639 133.158 47.2365 136.432L110.931 179.962C117.41 184.48 122.312 193.372 124.374 204.498C126.529 216.804 124.808 229.232 119.46 236.781L72.204 304.242C68.3867 309.751 63.3134 312.069 57.9618 310.844C48.8733 308.587 41.3496 297.159 38.9357 282.131L22.497 171.14C20.1846 156.241 23.9433 142.419 31.4324 136.53ZM67.6384 307.205C68.9296 306.19 70.0178 304.916 71.1335 303.412L118.39 235.951C123.48 228.606 125.375 216.666 123.193 204.59C121.307 193.954 116.404 185.062 110.231 180.931L46.5357 137.4C41.9952 134.284 37.456 134.092 33.4068 136.649C25.4376 141.662 21.4206 155.687 23.5763 170.918L40.015 281.909C42.1519 296.32 49.5741 307.618 57.9982 309.562C61.4305 310.206 64.7977 309.439 67.6384 307.205Z" fill="#00A79D"/>
<path d="M23.1598 133.212C23.289 133.111 23.289 133.111 23.4181 133.009C28.0389 129.584 33.5836 129.195 39.0742 132.191L111.301 170.893C118.453 174.673 124.103 183.186 127.216 194.321C130.903 207.512 129.709 221.407 124.297 230.469L77.4412 308.272C73.4859 314.934 67.8685 317.889 61.7974 316.812C52.0357 315.294 43.2296 303.829 40.0221 288.589L14.752 172.214C11.0921 155.867 14.6377 139.914 23.1598 133.212ZM76.7768 307.958L76.3431 307.672L123.199 229.87C128.454 221.14 129.491 207.577 126.008 194.644C122.968 183.869 117.521 175.614 110.702 171.991L38.475 133.289C33.4181 130.579 28.3623 130.793 24.2304 134.042C15.865 140.411 12.3745 155.903 15.7299 171.863L40.9999 288.238C44.2626 303.017 52.5334 314.066 61.8337 315.53C67.4435 316.551 72.5997 313.542 76.2416 307.543L76.7768 307.958Z" fill="#00A79D"/>
<path d="M14.0258 130.575C18.6742 126.92 24.2465 126.299 29.949 128.502L110.874 160.991C118.569 164.134 125.326 172.195 129.288 183.08C134.506 197.157 134.328 212.343 128.954 223.047L83.1082 311.967C79.1441 319.682 73.0565 323.633 66.0076 322.907C55.3696 321.868 45.6596 311.115 41.2249 295.377L6.01655 174.069C1.02778 157.096 3.94538 139.547 12.9928 131.387C13.3802 131.083 13.7676 130.778 14.0258 130.575ZM76.4589 318.658C78.654 316.932 80.7012 314.487 82.2407 311.395L128.086 222.476C133.535 212.131 133.556 197.277 128.541 183.459C124.551 172.805 117.998 165.002 110.736 162.145L29.8111 129.655C24.007 127.324 18.6379 128.202 14.1649 132.346C5.50486 140.201 2.77148 157.187 7.58477 173.672L42.7931 294.98C47.08 309.998 56.6884 320.622 66.6344 321.578C69.9652 322.093 73.489 320.994 76.4589 318.658Z" fill="#00A79D"/>
<path d="M4.04187 128.813C8.56118 125.26 14.1886 124.178 19.9739 125.689L110.223 150.637C118.49 152.912 126.354 160.521 131.497 171.313C138.33 185.583 139.213 202.65 134.033 214.665L90.1942 315.171C86.1937 324.168 79.5069 329.218 71.5817 328.972C60.3997 328.57 49.3521 318.241 43.6073 302.698L-2.70145 177.372C-9.04658 160.002 -7.24586 141.033 1.76401 131.231C2.23414 130.235 3.13801 129.524 4.04187 128.813ZM89.4007 314.96L88.8379 314.775L132.677 214.269C137.829 202.485 136.891 185.879 130.261 171.867C125.321 161.333 117.762 154.112 109.725 151.864L19.5777 127.045C12.9989 125.322 7.18722 126.967 2.37327 132.006C-6.37836 141.605 -8.2255 159.984 -1.82519 176.892L44.4836 302.218C50.1544 317.402 60.6392 327.546 71.3875 327.662C78.8513 327.852 85.0216 323.209 88.8654 314.545L89.4007 314.96Z" fill="#00A79D"/>
<path d="M-7.00291 128.093C-2.61272 124.641 2.81162 123.301 8.67966 124.12L108.474 139.681C117.544 141.117 126.311 148.015 132.635 158.714C141.184 173.306 143.47 191.36 138.429 205.146L97.3351 317.913C93.6304 328.349 86.2153 334.598 77.2847 334.934C65.4019 335.501 53.1182 325.726 45.9619 310.248L-12.7109 181.689C-20.6983 164.357 -20.0144 143.967 -11.2452 132.265C-10.0003 130.659 -8.55239 129.312 -7.00291 128.093ZM96.3386 317.443L137.432 204.676C142.317 191.223 140.003 173.399 131.63 159.296C125.509 148.854 116.944 142.215 108.336 140.835L8.54173 125.273C1.18819 124.16 -5.45341 126.875 -10.1746 133.095C-18.7872 144.465 -19.2867 164.292 -11.604 181.237L47.0965 309.565C53.9481 324.656 65.798 334.145 77.321 333.651C85.7903 333.26 92.689 327.418 96.3386 317.443Z" fill="#00A79D"/>
<path d="M-18.8446 128.419C-14.5835 125.068 -9.46383 123.341 -3.77128 123.671L105.66 128.102C115.559 128.467 125.563 134.81 133.197 145.316C143.517 159.769 147.307 178.939 142.765 194.422L105.644 319.946C102.106 331.923 94.1928 339.399 84.1001 340.649C71.2858 342.158 58.0707 333.325 49.4013 317.782L-23.0372 187.928C-32.7683 170.504 -33.6439 149.46 -25.2168 135.728C-23.216 132.692 -21.1688 130.246 -18.8446 128.419ZM94.9751 334.814C99.3653 331.361 102.666 326.258 104.647 319.476L141.769 193.952C146.256 178.93 142.539 160.12 132.422 145.925C124.991 135.678 115.421 129.62 105.882 129.181L-3.54939 124.75C-11.9359 124.449 -19.0753 128.391 -23.8605 136.124C-32.1308 149.524 -31.3016 169.977 -21.7736 187.143L50.665 316.998C59.0573 331.922 71.8387 340.469 84.164 339.136C88.0665 338.784 91.8762 337.251 94.9751 334.814Z" fill="#00A79D"/>
<path d="M-31.3071 130.072C-27.1752 126.823 -22.3877 124.939 -16.9721 124.65L102.316 116.106C113.175 115.299 124.442 120.858 133.488 131.298C145.607 145.381 150.929 165.436 147.042 182.284L115.148 320.834C112.109 334.508 103.541 343.544 92.1851 345.578C78.6701 348.056 64.0346 340.34 53.8985 325.324L-33.4954 195.319C-44.9239 178.394 -47.4605 156.566 -39.7354 140.879C-37.6981 136.56 -34.7934 132.813 -31.3071 130.072ZM114.456 320.751L113.893 320.567L145.788 182.017C149.517 165.501 144.371 145.935 132.584 132.009C123.972 121.854 112.908 116.554 102.409 117.287L-16.8794 125.831C-26.428 126.444 -34.1202 132.075 -38.7663 141.579C-46.2056 156.833 -43.743 178.301 -32.6191 194.839L54.7748 324.844C64.6063 339.472 78.6788 347.004 91.8341 344.6C102.831 342.64 110.78 333.881 113.764 320.669L114.456 320.751Z" fill="#00A79D"/>
<path d="M-44.8261 133.387C-40.9524 130.341 -36.4971 128.3 -31.4877 127.496L97.7033 103.641C109.549 101.432 122.439 106.132 132.896 116.507C146.713 130.091 153.724 150.699 150.594 169.042L125.052 320.985C122.512 336.357 113.623 347.108 100.818 350.49C86.5748 354.168 70.519 347.568 58.8886 333.31L-44.6315 205.119C-57.8865 188.794 -62.2684 166.746 -55.7065 149.048C-53.2643 142.321 -49.6037 137.144 -44.8261 133.387ZM123.927 320.617L149.468 168.673C152.543 150.792 145.606 130.544 131.992 117.218C121.84 107.23 109.411 102.585 97.9251 104.721L-31.1367 128.474C-41.9026 130.461 -50.2769 137.882 -54.4517 149.315C-60.8568 166.681 -56.5213 188.139 -43.571 204.076L59.9492 332.267C71.2474 346.369 86.8695 352.682 100.624 349.18C112.939 345.974 121.442 335.527 123.927 320.617Z" fill="#00A79D"/>
<path d="M-58.6926 138.025C-55.2063 135.283 -51.3414 133.289 -46.9688 131.94L91.7826 90.7463C104.873 86.9307 119.313 90.4124 131.541 100.648C147.286 113.761 155.837 134.203 153.696 154.067L135.992 319.699C134.209 336.565 124.813 349.595 110.893 354.481C95.6353 359.792 78.5929 354.596 65.0345 340.808L-56.1427 216.472C-71.0487 201.237 -77.2759 178.968 -72.2922 159.794C-70.0355 150.706 -65.2779 143.203 -58.6926 138.025ZM135.531 319.644L134.839 319.561L152.413 154.031C154.5 134.628 146.253 114.574 130.711 101.719C118.787 91.8704 104.707 88.3147 92.106 91.9547L-46.6454 133.148C-58.6562 136.742 -67.6661 146.544 -71.1389 159.932C-75.9659 178.773 -69.785 200.452 -55.2113 215.531L65.9659 339.867C79.0905 353.368 95.6993 358.279 110.57 353.273C124.001 348.562 133.111 335.965 134.968 319.459L135.531 319.644Z" fill="#00A79D"/>
<path d="M-73.4059 144.578C-70.436 142.243 -67.1616 140.295 -63.6101 138.965L84.5162 78.0697C98.9064 72.1871 115.228 74.607 129.357 84.6024C146.725 96.8568 156.79 117.362 155.921 138.315L147.855 317.265C147.032 335.883 137.388 350.99 122.066 357.814C106.025 364.786 87.3781 361.269 72.1687 348.571L-67.8916 230.516C-84.5777 216.471 -92.862 194.775 -89.5581 173.997C-87.7086 161.467 -82.0571 151.381 -73.4059 144.578ZM147.292 317.08L146.702 317.127L154.768 138.177C155.812 117.713 145.821 97.5675 128.656 85.5714C114.73 75.8343 98.87 73.4695 84.9687 79.1767L-63.1577 140.072C-76.6991 145.705 -86.0125 158.044 -88.3772 173.904C-91.5244 194.35 -83.4155 215.557 -66.9325 229.344L73.1277 347.399C88.0049 359.94 106.191 363.402 121.743 356.605C136.677 350.086 146.036 335.413 146.804 317.256L147.292 317.08Z" fill="#00A79D"/>
<path d="M-88.4674 153.076C-86.1432 151.248 -83.745 149.781 -81.1162 148.34L75.8675 65.2258C91.4837 56.9162 109.973 57.8407 126.491 67.4199C145.28 78.5574 157.116 98.9236 157.447 120.605L160.531 312.937C160.798 333.206 151.108 350.647 134.717 359.566C117.966 368.559 97.687 366.952 80.4667 355.418L-79.6287 246.43C-97.9195 234.065 -108.362 212.813 -107.282 191.067C-106.329 175.272 -99.7011 161.91 -88.4674 153.076ZM140.767 353.973C152.776 344.53 159.468 329.655 159.249 312.901L156.137 120.799C155.88 99.4777 144.118 79.4713 125.763 68.6196C109.706 59.0955 91.678 58.2262 76.32 66.3327L-80.5345 149.346C-95.7634 157.351 -104.946 172.513 -105.972 190.873C-107.126 212.259 -96.8589 233.023 -78.9003 245.231L81.1951 354.218C97.954 365.698 117.772 367.249 134.163 358.33C136.534 357.093 138.701 355.597 140.767 353.973Z" fill="#00A79D"/>
<path d="M-103.626 163.328C-102.335 162.312 -101.044 161.297 -99.651 160.411L65.4417 52.5305C82.3117 41.5633 103.614 40.4846 122.291 49.6202C142.731 59.6683 155.959 79.1484 157.693 101.816L173.782 306.7C175.497 328.546 165.993 348.349 148.478 359.824C130.962 371.299 108.894 371.935 89.6352 361.794L-91.6751 264.892C-111.801 254.179 -124.384 234.191 -125.297 211.505C-125.803 192.26 -117.959 174.598 -103.626 163.328ZM151.973 356.03C166.564 344.557 174.334 326.535 172.832 306.82L156.743 101.936C154.954 79.7299 141.928 60.5082 121.922 50.7459C103.578 41.7671 82.6351 42.7719 66.2541 53.5635L-98.9677 161.545C-115.349 172.337 -124.715 190.986 -123.886 211.44C-122.917 233.665 -110.537 253.394 -90.8451 263.821L90.4652 360.723C109.262 370.809 130.869 370.118 148.127 358.846C149.39 358.061 150.682 357.046 151.973 356.03Z" fill="#00A79D"/>
<path d="M-118.781 175.662L53.4692 40.2117C71.8047 25.7935 95.6155 22.3242 117.272 30.9973C138.929 39.6703 153.753 58.5223 157.075 81.6136L188.326 298.605C191.648 321.696 182.661 344.018 164.326 358.436C145.99 372.854 122.179 376.323 100.523 367.65L-102.979 286.109C-124.636 277.436 -139.461 258.584 -142.782 235.493C-146.103 212.401 -137.117 190.08 -118.781 175.662ZM187.607 298.753L187.016 298.799L155.866 81.937C152.72 59.3346 138.099 40.7409 116.775 32.2245C95.5515 23.8373 72.2296 27.1311 54.2814 41.2447L-118.098 176.797C-136.046 190.91 -144.876 212.899 -141.601 235.4C-138.455 258.002 -123.834 276.596 -102.509 285.112L100.993 366.654C122.216 375.041 145.538 371.747 163.486 357.633C181.434 343.52 190.264 321.531 186.989 299.03L187.607 298.753Z" fill="#00A79D"/>
</svg>
